<svg preserveAspectRatio="none" width="100%" height="100%" overflow="visible" style="display: block;" viewBox="0 0 10.7287 10.6602" fill="none" xmlns="http://www.w3.org/2000/svg">
<path id="icon" d="M0.21967 9.37982C-0.0732233 9.67272 -0.0732233 10.1476 0.21967 10.4405C0.512563 10.7334 0.987437 10.7334 1.28033 10.4405L0.75 9.91015L0.21967 9.37982ZM0.820711 9.83944L0.4388 9.19396L0.357323 9.24217L0.290381 9.30911L0.820711 9.83944ZM1.0495 9.70407L1.43141 10.3496L1.0495 9.70407ZM1.37867 9.45164L1.94802 9.93984L1.37867 9.45164ZM1.47904 9.33458L0.909682 8.84639L1.47904 9.33458ZM1.75648 8.95972L1.09791 8.60085L1.75648 8.95972ZM1.90987 8.67823L2.56844 9.0371L1.90987 8.67823ZM2.15194 8.48543L1.92675 7.77004L2.15194 8.48543ZM2.31732 8.43338L2.54251 9.14877L2.31732 8.43338ZM2.73741 8.20116L3.3526 8.63015L2.73741 8.20116ZM2.82674 8.07305L2.21154 7.64406L2.82674 8.07305ZM2.91607 7.94495L2.30088 7.51595L2.91607 7.94495ZM3.08626 7.68027L3.73162 8.06239L3.08626 7.68027ZM3.24799 7.40713L2.60263 7.02502L3.24799 7.40713ZM3.45823 7.1825L3.03622 6.56249V6.56249L3.45823 7.1825ZM3.71698 7.00638L4.13899 7.62638V7.62638L3.71698 7.00638ZM3.90747 6.762L4.60598 7.03507L3.90747 6.762ZM4.02969 6.44935L3.33117 6.17627L4.02969 6.44935ZM4.24233 6.22712L3.94316 5.53937L4.24233 6.22712ZM4.54537 6.09529L4.84454 6.78304L4.54537 6.09529ZM4.83885 5.95389L5.19097 6.61609L4.83885 5.95389ZM5.12275 5.80293L4.77063 5.14073L5.12275 5.80293ZM5.36547 5.61078L4.79787 5.12054L5.36547 5.61078ZM5.56701 5.37744L6.13461 5.86768L5.56701 5.37744ZM5.727 5.10256L6.4294 5.36549L5.727 5.10256ZM5.78622 4.94435L6.48862 5.20728L5.78622 4.94435ZM5.84545 4.78614L5.14305 4.5232L5.84545 4.78614ZM6.05574 4.56156L6.35739 5.24822L6.05574 4.56156ZM6.35788 4.42883L6.05623 3.74217L6.35788 4.42883ZM6.58292 4.219L7.24954 4.56267L6.58292 4.219ZM6.73085 3.93205L6.06422 3.58838L6.73085 3.93205ZM6.87143 3.63777L6.18538 3.33473L6.87143 3.63777ZM7.00466 3.33613L7.69072 3.63917L7.00466 3.33613ZM7.19854 3.09514L6.76492 2.48319L7.19854 3.09514ZM7.45306 2.91479L7.01945 2.30284L7.45306 2.91479ZM7.91691 2.72633L7.70669 2.0064L7.91691 2.72633ZM8.0852 2.67719L8.29542 3.39713L8.0852 2.67719ZM8.30858 2.4657L7.59835 2.22473L8.30858 2.4657ZM8.41875 2.14099L9.12898 2.38196L8.41875 2.14099ZM8.61104 1.89842L8.23249 1.25096L8.61104 1.89842ZM8.74825 1.81819L9.12681 2.46564L8.74825 1.81819ZM8.88546 1.73797L8.50691 1.09051L8.88546 1.73797ZM9.15642 1.57405L9.55424 2.20985L9.15642 1.57405ZM9.42392 1.40668L9.0261 0.770882L9.42392 1.40668ZM9.62823 1.24226L10.1929 1.73586L9.62823 1.24226ZM9.76936 1.08081L9.20468 0.587214L9.76936 1.08081ZM9.79496 0.955117L10.3253 0.424787L10.0341 0.133546L9.63201 0.223032L9.79496 0.955117ZM9.67929 0.980864L9.14896 0.450534L7.32661 2.27288L9.84224 1.71295L9.67929 0.980864ZM9.75 0.910153H10.5V0.160153H9.75V0.910153ZM9.75 1.01015H9V1.08649L9.01538 1.16125L9.75 1.01015ZM9.80296 1.26765L9.06834 1.41875L9.80296 1.26765ZM9.84336 2.2939L9.16103 1.98259L9.84336 2.2939ZM9.77322 2.44765L10.4556 2.75896L9.77322 2.44765ZM9.71341 2.9089L10.3779 2.56107L9.71341 2.9089ZM9.79389 3.06265L9.12943 3.41049L9.79389 3.06265ZM9.87438 3.2164L10.5388 2.86857L9.87438 3.2164ZM9.89441 3.5239L10.5924 3.79836L9.89441 3.5239ZM9.7735 3.8314L9.07552 3.55695L9.7735 3.8314ZM9.78973 4.1389L10.4609 3.80414L9.78973 4.1389ZM9.94311 4.4464L9.27197 4.78117L9.94311 4.4464ZM9.93094 4.7539L10.5803 5.12919L9.93094 4.7539ZM9.75322 5.0614L9.10387 4.68611L9.75322 5.0614ZM9.65125 5.3689L8.90396 5.30516L9.65125 5.3689ZM9.62502 5.6764L10.3723 5.74015L9.62502 5.6764ZM9.68486 5.9839L10.3624 5.66238L9.68486 5.9839ZM9.83077 6.2914L9.15318 6.61292L9.83077 6.2914ZM9.86529 6.50783L9.22591 6.11579L9.86529 6.50783ZM9.82686 6.57051L10.0618 7.28275L10.3227 7.1967L10.4662 6.96255L9.82686 6.57051ZM9.75 6.59587L9.51503 5.88362L9 6.05353V6.59587H9.75ZM9 6.69587C9 7.11008 9.33579 7.44587 9.75 7.44587C10.1642 7.44587 10.5 7.11008 10.5 6.69587H9.75H9ZM9.65 0.910153L9.51457 1.64782L9.58172 1.66015H9.65V0.910153ZM9.3925 0.862878L9.25707 1.60055L9.3925 0.862878ZM8.98125 0.840579L8.86099 0.100282L8.98125 0.840579ZM8.8275 0.865554L8.94775 1.60585L8.8275 0.865554ZM8.05875 0.981653L8.16522 1.72406V1.72406L8.05875 0.981653ZM7.13625 0.960316L6.91729 1.67764L7.13625 0.960316ZM6.82875 0.866455L7.0477 0.149128L6.82875 0.866455ZM6.52125 0.904177L6.88298 1.56118L6.52125 0.904177ZM6.21375 1.07348L5.85201 0.416483L6.21375 1.07348ZM5.90625 1.10827L5.67489 1.8217L5.90625 1.10827ZM5.59875 1.00855L5.36739 1.72197L5.59875 1.00855ZM5.29125 0.978353L5.19611 0.234412L5.29125 0.978353ZM4.67625 0.958024L5.0201 0.291492L4.67625 0.958024ZM4.36875 0.799389L4.0249 1.46592L4.36875 0.799389ZM4.15232 0.767592L4.60543 1.36525L4.15232 0.767592ZM4.08964 0.815113L3.63653 0.217459L3.43136 0.373005L3.36499 0.621766L4.08964 0.815113ZM4.06428 0.910153V1.66015H4.64041L4.78893 1.1035L4.06428 0.910153ZM3.96428 0.160153C3.55007 0.160153 3.21428 0.49594 3.21428 0.910153C3.21428 1.32437 3.55007 1.66015 3.96428 1.66015V0.910153V0.160153ZM0.75 9.91015L1.28033 10.4405L1.35104 10.3698L0.820711 9.83944L0.290381 9.30911L0.21967 9.37982L0.75 9.91015ZM0.820711 9.83944L1.20262 10.4849L1.43141 10.3496L1.0495 9.70407L0.667591 9.05859L0.4388 9.19396L0.820711 9.83944ZM1.0495 9.70407L1.43141 10.3496C1.61123 10.2432 1.80254 10.1095 1.94802 9.93984L1.37867 9.45164L0.809309 8.96345C0.818993 8.95216 0.816527 8.95763 0.789784 8.97814C0.764255 8.99772 0.724826 9.02473 0.667591 9.05859L1.0495 9.70407ZM1.37867 9.45164L1.94802 9.93984L2.0484 9.82277L1.47904 9.33458L0.909682 8.84639L0.809309 8.96345L1.37867 9.45164ZM1.47904 9.33458L2.0484 9.82277L2.14877 9.70571L1.57941 9.21752L1.01006 8.72933L0.909682 8.84639L1.47904 9.33458ZM1.57941 9.21752L2.14877 9.70571C2.25119 9.58627 2.33978 9.45671 2.41505 9.31858L1.75648 8.95972L1.09791 8.60085C1.07092 8.65038 1.04147 8.69269 1.01006 8.72933L1.57941 9.21752ZM1.75648 8.95972L2.41505 9.31858L2.49174 9.17784L1.83317 8.81897L1.1746 8.46011L1.09791 8.60085L1.75648 8.95972ZM1.83317 8.81897L2.49174 9.17784L2.56844 9.0371L1.90987 8.67823L1.2513 8.31936L1.1746 8.46011L1.83317 8.81897ZM1.90987 8.67823L2.56844 9.0371C2.54783 9.07491 2.5168 9.11382 2.47598 9.14633C2.43607 9.17811 2.39937 9.19383 2.37713 9.20083L2.15194 8.48543L1.92675 7.77004C1.64795 7.8578 1.40332 8.04039 1.2513 8.31936L1.90987 8.67823ZM2.15194 8.48543L2.37713 9.20083L2.54251 9.14877L2.31732 8.43338L2.09213 7.71798L1.92675 7.77004L2.15194 8.48543ZM2.31732 8.43338L2.54251 9.14877L2.70788 9.09671L2.4827 8.38132L2.25751 7.66592L2.09213 7.71798L2.31732 8.43338ZM2.4827 8.38132L2.70788 9.09671C2.95782 9.01804 3.18779 8.8665 3.3526 8.63015L2.73741 8.20116L2.12221 7.77216C2.14201 7.74377 2.16748 7.71808 2.19596 7.69794C2.2237 7.67832 2.24659 7.66936 2.25751 7.66592L2.4827 8.38132ZM2.73741 8.20116L3.3526 8.63015L3.44193 8.50205L2.82674 8.07305L2.21154 7.64406L2.12221 7.77216L2.73741 8.20116ZM2.82674 8.07305L3.44193 8.50205L3.53126 8.37395L2.91607 7.94495L2.30088 7.51595L2.21154 7.64406L2.82674 8.07305ZM2.91607 7.94495L3.53126 8.37395C3.60162 8.27305 3.6684 8.16917 3.73162 8.06239L3.08626 7.68027L2.4409 7.29816C2.39631 7.37347 2.34963 7.44605 2.30088 7.51595L2.91607 7.94495ZM3.08626 7.68027L3.73162 8.06239L3.81249 7.92581L3.16713 7.5437L2.52177 7.16159L2.4409 7.29816L3.08626 7.68027ZM3.16713 7.5437L3.81249 7.92581L3.89335 7.78924L3.24799 7.40713L2.60263 7.02502L2.52177 7.16159L3.16713 7.5437ZM3.24799 7.40713L3.89335 7.78924C3.89343 7.78911 3.89192 7.7916 3.88856 7.79518C3.88518 7.79879 3.88201 7.8013 3.88024 7.8025L3.45823 7.1825L3.03622 6.56249C2.85764 6.68404 2.71181 6.84063 2.60263 7.02502L3.24799 7.40713ZM3.45823 7.1825L3.88024 7.8025L4.00961 7.71444L3.5876 7.09444L3.16559 6.47443L3.03622 6.56249L3.45823 7.1825ZM3.5876 7.09444L4.00961 7.71444L4.13899 7.62638L3.71698 7.00638L3.29497 6.38637L3.16559 6.47443L3.5876 7.09444ZM3.71698 7.00638L4.13899 7.62638C4.35949 7.4763 4.51437 7.26943 4.60598 7.03507L3.90747 6.762L3.20895 6.48892C3.21278 6.47912 3.2214 6.46117 3.23776 6.44017C3.25441 6.41881 3.27434 6.40041 3.29497 6.38637L3.71698 7.00638ZM3.90747 6.762L4.60598 7.03507L4.6671 6.87875L3.96858 6.60567L3.27006 6.33259L3.20895 6.48892L3.90747 6.762ZM3.96858 6.60567L4.6671 6.87875L4.72821 6.72243L4.02969 6.44935L3.33117 6.17627L3.27006 6.33259L3.96858 6.60567ZM4.02969 6.44935L4.72821 6.72243C4.71619 6.75318 4.69357 6.79415 4.65531 6.83413C4.61688 6.87429 4.57546 6.90009 4.5415 6.91486L4.24233 6.22712L3.94316 5.53937C3.65595 5.6643 3.44328 5.8895 3.33117 6.17627L4.02969 6.44935ZM4.24233 6.22712L4.5415 6.91486L4.69302 6.84895L4.39385 6.1612L4.09468 5.47346L3.94316 5.53937L4.24233 6.22712ZM4.39385 6.1612L4.69302 6.84895L4.84454 6.78304L4.54537 6.09529L4.2462 5.40754L4.09468 5.47346L4.39385 6.1612ZM4.54537 6.09529L4.84454 6.78304C4.96304 6.73149 5.07856 6.67587 5.19097 6.61609L4.83885 5.95389L4.48672 5.29169C4.40987 5.33256 4.32974 5.37121 4.2462 5.40754L4.54537 6.09529ZM4.83885 5.95389L5.19097 6.61609L5.33293 6.54061L4.9808 5.87841L4.62868 5.21621L4.48672 5.29169L4.83885 5.95389ZM4.9808 5.87841L5.33293 6.54061L5.47488 6.46513L5.12275 5.80293L4.77063 5.14073L4.62868 5.21621L4.9808 5.87841ZM5.12275 5.80293L5.47488 6.46513C5.64778 6.37319 5.80273 6.25193 5.93307 6.10101L5.36547 5.61078L4.79787 5.12054C4.79386 5.12519 4.78699 5.13203 4.77063 5.14073L5.12275 5.80293ZM5.36547 5.61078L5.93307 6.10101L6.03384 5.98434L5.46624 5.49411L4.89864 5.00387L4.79787 5.12054L5.36547 5.61078ZM5.46624 5.49411L6.03384 5.98434L6.13461 5.86768L5.56701 5.37744L4.99941 4.8872L4.89864 5.00387L5.46624 5.49411ZM5.56701 5.37744L6.13461 5.86768C6.26513 5.71656 6.36177 5.54615 6.4294 5.36549L5.727 5.10256L5.0246 4.83963C5.01326 4.86991 5.00324 4.88276 4.99941 4.8872L5.56701 5.37744ZM5.727 5.10256L6.4294 5.36549L6.48862 5.20728L5.78622 4.94435L5.08382 4.68142L5.0246 4.83963L5.727 5.10256ZM5.78622 4.94435L6.48862 5.20728L6.54785 5.04907L5.84545 4.78614L5.14305 4.5232L5.08382 4.68142L5.78622 4.94435ZM5.84545 4.78614L6.54785 5.04907C6.53633 5.07984 6.51401 5.12196 6.47508 5.16352C6.43589 5.20538 6.39306 5.23255 6.35739 5.24822L6.05574 4.56156L5.75409 3.8749C5.46319 4.00269 5.25157 4.23328 5.14305 4.5232L5.84545 4.78614ZM6.05574 4.56156L6.35739 5.24822L6.50846 5.18186L6.20681 4.4952L5.90516 3.80853L5.75409 3.8749L6.05574 4.56156ZM6.20681 4.4952L6.50846 5.18186L6.65953 5.11549L6.35788 4.42883L6.05623 3.74217L5.90516 3.80853L6.20681 4.4952ZM6.35788 4.42883L6.65953 5.11549C6.91381 5.00379 7.11958 4.81474 7.24954 4.56267L6.58292 4.219L5.91629 3.87532C5.92921 3.85025 5.94952 3.82139 5.97819 3.79466C6.0067 3.76808 6.03499 3.7515 6.05623 3.74217L6.35788 4.42883ZM6.58292 4.219L7.24954 4.56267L7.3235 4.4192L6.65688 4.07553L5.99026 3.73185L5.91629 3.87532L6.58292 4.219ZM6.65688 4.07553L7.3235 4.4192L7.39747 4.27573L6.73085 3.93205L6.06422 3.58838L5.99026 3.73185L6.65688 4.07553ZM6.73085 3.93205L7.39747 4.27573C7.45381 4.16645 7.50713 4.05479 7.55748 3.9408L6.87143 3.63777L6.18538 3.33473C6.1469 3.42183 6.1065 3.50636 6.06422 3.58838L6.73085 3.93205ZM6.87143 3.63777L7.55748 3.9408L7.6241 3.78999L6.93805 3.48695L6.25199 3.18391L6.18538 3.33473L6.87143 3.63777ZM6.93805 3.48695L7.6241 3.78999L7.69072 3.63917L7.00466 3.33613L6.31861 3.0331L6.25199 3.18391L6.93805 3.48695ZM7.00466 3.33613L7.69072 3.63917C7.68821 3.64484 7.68216 3.65649 7.67081 3.6706C7.65929 3.68491 7.64581 3.69741 7.63216 3.70708L7.19854 3.09514L6.76492 2.48319C6.5632 2.62613 6.41448 2.81605 6.31861 3.0331L7.00466 3.33613ZM7.19854 3.09514L7.63216 3.70708L7.75942 3.61691L7.3258 3.00496L6.89219 2.39302L6.76492 2.48319L7.19854 3.09514ZM7.3258 3.00496L7.75942 3.61691L7.88668 3.52673L7.45306 2.91479L7.01945 2.30284L6.89219 2.39302L7.3258 3.00496ZM7.45306 2.91479L7.88668 3.52673C7.8957 3.52034 7.91677 3.50769 7.95883 3.49541L7.74862 2.77547L7.5384 2.05554C7.35607 2.10877 7.18011 2.189 7.01945 2.30284L7.45306 2.91479ZM7.74862 2.77547L7.95883 3.49541L8.12713 3.44627L7.91691 2.72633L7.70669 2.0064L7.5384 2.05554L7.74862 2.77547ZM7.91691 2.72633L8.12713 3.44627L8.29542 3.39713L8.0852 2.67719L7.87499 1.95725L7.70669 2.0064L7.91691 2.72633ZM8.0852 2.67719L8.29542 3.39713C8.63609 3.29765 8.90141 3.05272 9.01882 2.70667L8.30858 2.4657L7.59835 2.22473C7.61462 2.17676 7.64841 2.11301 7.70955 2.05513C7.77018 1.99772 7.8329 1.96954 7.87499 1.95725L8.0852 2.67719ZM8.30858 2.4657L9.01882 2.70667L9.0739 2.54431L8.36366 2.30334L7.65343 2.06238L7.59835 2.22473L8.30858 2.4657ZM8.36366 2.30334L9.0739 2.54431L9.12898 2.38196L8.41875 2.14099L7.70851 1.90002L7.65343 2.06238L8.36366 2.30334ZM8.41875 2.14099L9.12898 2.38196C9.12267 2.40057 9.10892 2.43124 9.0821 2.46508C9.05473 2.4996 9.02205 2.5269 8.9896 2.54587L8.61104 1.89842L8.23249 1.25096C7.97235 1.40306 7.79832 1.63533 7.70851 1.90002L8.41875 2.14099ZM8.61104 1.89842L8.9896 2.54587L9.12681 2.46564L8.74825 1.81819L8.3697 1.17074L8.23249 1.25096L8.61104 1.89842ZM8.74825 1.81819L9.12681 2.46564L9.26402 2.38542L8.88546 1.73797L8.50691 1.09051L8.3697 1.17074L8.74825 1.81819ZM8.88546 1.73797L9.26402 2.38542C9.36192 2.32817 9.45867 2.26965 9.55424 2.20985L9.15642 1.57405L8.7586 0.938257C8.67584 0.990037 8.59195 1.04079 8.50691 1.09051L8.88546 1.73797ZM9.15642 1.57405L9.55424 2.20985L9.68799 2.12616L9.29017 1.49037L8.89235 0.854569L8.7586 0.938257L9.15642 1.57405ZM9.29017 1.49037L9.68799 2.12616L9.82174 2.04248L9.42392 1.40668L9.0261 0.770882L8.89235 0.854569L9.29017 1.49037ZM9.42392 1.40668L9.82174 2.04248C9.94675 1.96426 10.0806 1.86439 10.1929 1.73586L9.62823 1.24226L9.06355 0.74867C9.07433 0.736334 9.07886 0.733639 9.07167 0.739428C9.06478 0.744973 9.05042 0.755664 9.0261 0.770882L9.42392 1.40668ZM9.62823 1.24226L10.1929 1.73586L10.2635 1.65513L9.6988 1.16154L9.13412 0.667942L9.06355 0.74867L9.62823 1.24226ZM9.6988 1.16154L10.2635 1.65513L10.334 1.5744L9.76936 1.08081L9.20468 0.587214L9.13412 0.667942L9.6988 1.16154ZM9.76936 1.08081L10.334 1.5744C10.3708 1.53241 10.4429 1.44639 10.4965 1.33137C10.5233 1.27386 10.7225 0.821977 10.3478 0.447269L9.81744 0.977599L9.28711 1.50793C9.12226 1.34308 9.06964 1.13812 9.07304 0.976694C9.07595 0.838144 9.11809 0.738127 9.13682 0.697917C9.15865 0.65107 9.18011 0.619929 9.18871 0.607901C9.19398 0.600527 9.19812 0.595225 9.20058 0.592158C9.20309 0.589035 9.20456 0.587354 9.20468 0.587214L9.76936 1.08081ZM9.81744 0.977599L10.3478 0.447269L10.3253 0.424787L9.79496 0.955117L9.26463 1.48545L9.28711 1.50793L9.81744 0.977599ZM9.79496 0.955117L9.63201 0.223032L9.51634 0.248779L9.67929 0.980864L9.84224 1.71295L9.95791 1.6872L9.79496 0.955117ZM9.67929 0.980864L10.2096 1.51119L10.2803 1.44048L9.75 0.910153L9.21967 0.379823L9.14896 0.450534L9.67929 0.980864ZM9.75 0.910153H9V1.01015H9.75H10.5V0.910153H9.75ZM9.75 1.01015L9.01538 1.16125L9.06834 1.41875L9.80296 1.26765L10.5376 1.11655L10.4846 0.859054L9.75 1.01015ZM9.80296 1.26765L9.06834 1.41875C9.10138 1.57939 9.1177 1.68594 9.12359 1.74882L9.87032 1.6789L10.6171 1.60898C10.6037 1.46687 10.5752 1.29925 10.5376 1.11655L9.80296 1.26765ZM9.87032 1.6789L9.12359 1.74882L9.13798 1.90257L9.88472 1.83265L10.6315 1.76273L10.6171 1.60898L9.87032 1.6789ZM9.88472 1.83265L9.13798 1.90257L9.15238 2.05632L9.89912 1.9864L10.6458 1.91648L10.6315 1.76273L9.88472 1.83265ZM9.89912 1.9864L9.15238 2.05632C9.15074 2.03877 9.15166 2.02149 9.15441 2.00636C9.15708 1.9916 9.16066 1.9834 9.16103 1.98259L9.84336 2.2939L10.5257 2.60521C10.6216 2.39502 10.6688 2.16161 10.6458 1.91648L9.89912 1.9864ZM9.84336 2.2939L9.16103 1.98259L9.09088 2.13634L9.77322 2.44765L10.4556 2.75896L10.5257 2.60521L9.84336 2.2939ZM9.77322 2.44765L9.09088 2.13634L9.02073 2.29009L9.70307 2.6014L10.3854 2.91271L10.4556 2.75896L9.77322 2.44765ZM9.70307 2.6014L9.02073 2.29009C8.87486 2.60982 8.89126 2.95552 9.04895 3.25674L9.71341 2.9089L10.3779 2.56107C10.3966 2.59675 10.4176 2.65498 10.4202 2.72995C10.4227 2.80562 10.4053 2.86905 10.3854 2.91271L9.70307 2.6014ZM9.71341 2.9089L9.04895 3.25674L9.12943 3.41049L9.79389 3.06265L10.4584 2.71482L10.3779 2.56107L9.71341 2.9089ZM9.79389 3.06265L9.12943 3.41049L9.20992 3.56424L9.87438 3.2164L10.5388 2.86857L10.4584 2.71482L9.79389 3.06265ZM9.87438 3.2164L9.20992 3.56424C9.19434 3.53447 9.17549 3.48456 9.17122 3.4189C9.16687 3.35219 9.17917 3.29335 9.19643 3.24945L9.89441 3.5239L10.5924 3.79836C10.7168 3.48203 10.6876 3.15274 10.5388 2.86857L9.87438 3.2164ZM9.89441 3.5239L9.19643 3.24945L9.13597 3.4032L9.83395 3.67765L10.5319 3.95211L10.5924 3.79836L9.89441 3.5239ZM9.83395 3.67765L9.13597 3.4032L9.07552 3.55695L9.7735 3.8314L10.4715 4.10586L10.5319 3.95211L9.83395 3.67765ZM9.7735 3.8314L9.07552 3.55695C8.95401 3.86595 8.97694 4.18969 9.11859 4.47367L9.78973 4.1389L10.4609 3.80414C10.4759 3.83423 10.493 3.88286 10.4963 3.94561C10.4996 4.00914 10.4877 4.0647 10.4715 4.10586L9.7735 3.8314ZM9.78973 4.1389L9.11859 4.47367L9.19528 4.62742L9.86642 4.29265L10.5376 3.95789L10.4609 3.80414L9.78973 4.1389ZM9.86642 4.29265L9.19528 4.62742L9.27197 4.78117L9.94311 4.4464L10.6143 4.11164L10.5376 3.95789L9.86642 4.29265ZM9.94311 4.4464L9.27197 4.78117C9.24788 4.73288 9.22547 4.65955 9.229 4.57049C9.23248 4.48258 9.25974 4.41642 9.28159 4.37861L9.93094 4.7539L10.5803 5.12919C10.7605 4.81747 10.7822 4.44842 10.6143 4.11164L9.94311 4.4464ZM9.93094 4.7539L9.28159 4.37861L9.19273 4.53236L9.84208 4.90765L10.4914 5.28294L10.5803 5.12919L9.93094 4.7539ZM9.84208 4.90765L9.19273 4.53236L9.10387 4.68611L9.75322 5.0614L10.4026 5.43669L10.4914 5.28294L9.84208 4.90765ZM9.75322 5.0614L9.10387 4.68611C8.9978 4.86965 8.92338 5.07747 8.90396 5.30516L9.65125 5.3689L10.3985 5.43265C10.3977 5.44287 10.3958 5.4494 10.3952 5.45123C10.3947 5.45277 10.3961 5.44797 10.4026 5.43669L9.75322 5.0614ZM9.65125 5.3689L8.90396 5.30516L8.89085 5.45891L9.63813 5.52265L10.3854 5.5864L10.3985 5.43265L9.65125 5.3689ZM9.63813 5.52265L8.89085 5.45891L8.87773 5.61266L9.62502 5.6764L10.3723 5.74015L10.3854 5.5864L9.63813 5.52265ZM9.62502 5.6764L8.87773 5.61266C8.85656 5.8608 8.90772 6.09562 9.00727 6.30542L9.68486 5.9839L10.3624 5.66238C10.3627 5.66301 10.3666 5.67144 10.3696 5.68689C10.3727 5.70276 10.3739 5.72117 10.3723 5.74015L9.62502 5.6764ZM9.68486 5.9839L9.00727 6.30542L9.08023 6.45917L9.75781 6.13765L10.4354 5.81613L10.3624 5.66238L9.68486 5.9839ZM9.75781 6.13765L9.08023 6.45917L9.15318 6.61292L9.83077 6.2914L10.5084 5.96988L10.4354 5.81613L9.75781 6.13765ZM9.83077 6.2914L9.15318 6.61292C9.16182 6.63113 9.14513 6.60252 9.13524 6.54053C9.1262 6.48387 9.10871 6.30695 9.22591 6.11579L9.86529 6.50783L10.5047 6.89987C10.6475 6.66693 10.6371 6.43304 10.6165 6.30424C10.5951 6.17011 10.5484 6.05418 10.5084 5.96988L9.83077 6.2914ZM9.86529 6.50783L9.22591 6.11579L9.18748 6.17847L9.82686 6.57051L10.4662 6.96255L10.5047 6.89987L9.86529 6.50783ZM9.82686 6.57051L9.59189 5.85827L9.51503 5.88362L9.75 6.59587L9.98497 7.30811L10.0618 7.28275L9.82686 6.57051ZM9.75 6.59587H9V6.69587H9.75H10.5V6.59587H9.75ZM9.75 0.910153V0.160153H9.65V0.910153V1.66015H9.75V0.910153ZM9.65 0.910153L9.78543 0.172482L9.52793 0.125207L9.3925 0.862878L9.25707 1.60055L9.51457 1.64782L9.65 0.910153ZM9.3925 0.862878L9.52793 0.125207C9.32118 0.0872498 9.08663 0.0636295 8.86099 0.100282L8.98125 0.840579L9.1015 1.58087C9.08576 1.58343 9.08947 1.58089 9.12033 1.58257C9.14989 1.58417 9.19461 1.58908 9.25707 1.60055L9.3925 0.862878ZM8.98125 0.840579L8.86099 0.100282L8.70724 0.125258L8.8275 0.865554L8.94775 1.60585L9.1015 1.58087L8.98125 0.840579ZM8.8275 0.865554L8.70724 0.125258L8.55349 0.150233L8.67375 0.89053L8.794 1.63083L8.94775 1.60585L8.8275 0.865554ZM8.67375 0.89053L8.55349 0.150233C8.45557 0.16614 8.35767 0.181112 8.25978 0.19515L8.36625 0.937555L8.47272 1.67996C8.57983 1.6646 8.68693 1.64822 8.794 1.63083L8.67375 0.89053ZM8.36625 0.937555L8.25978 0.19515L8.10603 0.2172L8.2125 0.959604L8.31897 1.70201L8.47272 1.67996L8.36625 0.937555ZM8.2125 0.959604L8.10603 0.2172L7.95228 0.239249L8.05875 0.981653L8.16522 1.72406L8.31897 1.70201L8.2125 0.959604ZM8.05875 0.981653L7.95228 0.239249C7.88327 0.249146 7.8149 0.25421 7.74693 0.254601L7.75125 1.00459L7.75557 1.75458C7.8926 1.75379 8.02923 1.74356 8.16522 1.72406L8.05875 0.981653ZM7.75125 1.00459L7.74693 0.254601L7.59318 0.255487L7.5975 1.00547L7.60182 1.75546L7.75557 1.75458L7.75125 1.00459ZM7.5975 1.00547L7.59318 0.255487L7.43943 0.256373L7.44375 1.00636L7.44807 1.75635L7.60182 1.75546L7.5975 1.00547ZM7.44375 1.00636L7.43943 0.256373C7.41596 0.256508 7.38867 0.253202 7.3552 0.242989L7.13625 0.960316L6.91729 1.67764C7.08883 1.73 7.26654 1.75739 7.44807 1.75635L7.44375 1.00636ZM7.13625 0.960316L7.3552 0.242989L7.20146 0.196058L6.9825 0.913386L6.76354 1.63071L6.91729 1.67764L7.13625 0.960316ZM6.9825 0.913386L7.20146 0.196058L7.0477 0.149128L6.82875 0.866455L6.60979 1.58378L6.76354 1.63071L6.9825 0.913386ZM6.82875 0.866455L7.0477 0.149128C6.73261 0.0529478 6.42146 0.102953 6.15951 0.247178L6.52125 0.904177L6.88298 1.56118C6.86156 1.57297 6.82174 1.59004 6.76632 1.59684C6.70943 1.60382 6.65505 1.5976 6.60979 1.58378L6.82875 0.866455ZM6.52125 0.904177L6.15951 0.247178L6.00576 0.331831L6.3675 0.98883L6.72923 1.64583L6.88298 1.56118L6.52125 0.904177ZM6.3675 0.98883L6.00576 0.331831L5.85201 0.416483L6.21375 1.07348L6.57548 1.73048L6.72923 1.64583L6.3675 0.98883ZM6.21375 1.07348L5.85201 0.416483C5.87512 0.403762 5.91737 0.385859 5.97568 0.379261C6.03547 0.372496 6.09175 0.37998 6.13761 0.394852L5.90625 1.10827L5.67489 1.8217C5.99248 1.92469 6.30891 1.87725 6.57548 1.73048L6.21375 1.07348ZM5.90625 1.10827L6.13761 0.394852L5.98386 0.34499L5.7525 1.05841L5.52114 1.77183L5.67489 1.8217L5.90625 1.10827ZM5.7525 1.05841L5.98386 0.34499L5.83011 0.295129L5.59875 1.00855L5.36739 1.72197L5.52114 1.77183L5.7525 1.05841ZM5.59875 1.00855L5.83011 0.295129C5.62698 0.229254 5.41308 0.206663 5.19611 0.234412L5.29125 0.978353L5.38639 1.72229C5.38195 1.72286 5.3767 1.72297 5.3717 1.72248C5.3668 1.722 5.36511 1.72124 5.36739 1.72197L5.59875 1.00855ZM5.29125 0.978353L5.19611 0.234412L5.04236 0.254074L5.1375 0.998015L5.23264 1.74196L5.38639 1.72229L5.29125 0.978353ZM5.1375 0.998015L5.04236 0.254074L4.88861 0.273737L4.98375 1.01768L5.07889 1.76162L5.23264 1.74196L5.1375 0.998015ZM4.98375 1.01768L4.88861 0.273737C4.91742 0.270052 4.9465 0.271215 4.97283 0.276323C4.99845 0.281293 5.01456 0.28863 5.0201 0.291492L4.67625 0.958024L4.3324 1.62456C4.55367 1.73871 4.80834 1.79622 5.07889 1.76162L4.98375 1.01768ZM4.67625 0.958024L5.0201 0.291492L4.86635 0.212175L4.5225 0.878707L4.17865 1.54524L4.3324 1.62456L4.67625 0.958024ZM4.5225 0.878707L4.86635 0.212175L4.7126 0.132857L4.36875 0.799389L4.0249 1.46592L4.17865 1.54524L4.5225 0.878707ZM4.36875 0.799389L4.7126 0.132857C4.62541 0.0878757 4.49818 0.0319893 4.34678 0.00974697C4.19092 -0.013152 3.93479 -0.00866687 3.69921 0.169939L4.15232 0.767592L4.60543 1.36525C4.41164 1.51217 4.21247 1.50612 4.12875 1.49382C4.0495 1.48217 4.00959 1.45802 4.0249 1.46592L4.36875 0.799389ZM4.15232 0.767592L3.69921 0.169939L3.63653 0.217459L4.08964 0.815113L4.54275 1.41277L4.60543 1.36525L4.15232 0.767592ZM4.08964 0.815113L3.36499 0.621766L3.33963 0.716807L4.06428 0.910153L4.78893 1.1035L4.81429 1.00846L4.08964 0.815113ZM4.06428 0.910153V0.160153H3.96428V0.910153V1.66015H4.06428V0.910153Z" fill="var(--stroke-0, white)"/>
</svg>
