<svg preserveAspectRatio="none" width="100%" height="100%" overflow="visible" style="display: block;" viewBox="0 0 92 86" fill="none" xmlns="http://www.w3.org/2000/svg">
<g id="Icon Success" clip-path="url(#clip0_0_35)">
<path id="Icon Success_2" d="M81.8717 1.87586C82.664 0.420882 84.486 -0.116398 85.9411 0.675663C87.3959 1.46812 87.9336 3.29 87.1413 4.745C85.3402 8.05251 83.5451 11.3275 81.777 14.5477C82.0957 14.6354 82.424 14.7829 82.7428 15.0145C83.5465 15.5985 83.8101 16.3774 83.8981 16.7313C83.9937 17.1158 83.9931 17.4347 83.987 17.5956C83.9663 18.136 83.7994 18.6002 83.7526 18.7343C83.5943 19.1873 83.3179 19.8118 82.8962 20.6669C82.033 22.417 80.3751 25.5052 77.2575 30.8944C71.0269 41.6646 58.7708 62.1472 52.1882 72.9159C48.9099 78.2789 47.0845 81.1551 45.988 82.7206C45.84 82.9318 45.6956 83.1298 45.5573 83.3163C45.4442 83.496 45.3379 83.6617 45.235 83.8114C44.9089 84.2858 44.3652 85.0254 43.5671 85.5009C43.0901 85.785 42.418 86.0391 41.6071 85.995C40.8045 85.9513 40.1939 85.6326 39.8063 85.3573C39.7129 85.291 39.6231 85.2195 39.5368 85.1454C39.1496 84.9467 38.7694 84.7157 38.4128 84.4774C37.3733 83.7829 36.117 82.77 34.7087 81.539C31.871 79.0583 28.1194 75.4273 23.7194 70.9647L23.6462 70.8895L23.5778 70.8104C18.4823 64.8639 15.5231 60.4187 13.6843 56.8749C9.65217 53.5206 6.5136 50.8097 5.403 49.7313C4.21442 48.5771 4.18641 46.6778 5.3405 45.4891C6.49469 44.3006 8.39404 44.2726 9.58269 45.4266C10.1082 45.9369 11.1756 46.8845 12.6276 48.1337C13.7747 47.6897 15.1242 47.9809 15.9762 48.9638C17.5072 50.7301 18.0143 51.9279 18.5241 53.0946C19.8861 54.2217 21.3376 55.4133 22.8376 56.6307C21.3222 54.4991 19.7531 52.3347 18.277 50.3348C16.5983 48.0605 15.0551 46.0141 13.8708 44.4862C13.2774 43.7207 12.7828 43.0971 12.4118 42.6444C12.0764 42.2353 11.9316 42.0797 11.9206 42.0624L11.9528 42.0878C10.7042 40.9986 10.5756 39.1029 11.6647 37.8544C12.7199 36.6452 14.5308 36.4864 15.778 37.4677L15.8971 37.5663L16.0368 37.6942C16.371 38.0158 16.7529 38.4762 17.0524 38.8417C17.4723 39.3539 18.0038 40.0246 18.613 40.8104C19.8339 42.3856 21.4062 44.471 23.1042 46.7714C26.4926 51.362 30.4308 56.8805 33.0964 60.9735C34.3728 62.9335 35.6563 65.2497 36.8737 67.5907C38.2935 68.6392 39.6259 69.5969 40.8268 70.4218C40.9213 70.4341 41.0898 70.4429 41.3366 70.4179C41.8845 70.3622 42.5349 70.1781 43.0817 69.9393C43.1558 69.907 43.2027 69.8887 43.3454 69.7489C43.5517 69.5466 43.9004 69.137 44.4938 68.2606C45.6871 66.4982 47.5212 63.3853 50.8171 57.6249C57.3616 46.1865 69.403 24.7737 81.8717 1.87586ZM42.57 76.3007C42.3619 76.3347 42.153 76.3663 41.943 76.3876C41.7322 76.409 41.5032 76.4211 41.2614 76.4276C41.4725 76.8556 41.6733 77.2639 41.8669 77.6483C42.0793 77.2467 42.3124 76.7988 42.57 76.3007Z" fill="var(--fill-0, white)"/>
</g>
<defs>
<clipPath id="clip0_0_35">
<rect width="92" height="86" fill="white"/>
</clipPath>
</defs>
</svg>
