<svg preserveAspectRatio="none" width="100%" height="100%" overflow="visible" style="display: block;" viewBox="0 0 43 52" fill="none" xmlns="http://www.w3.org/2000/svg">
<g id="Icon heart" clip-path="url(#clip0_0_7)">
<path id="Icon Heart (Stroke)" d="M33.1144 2.73055C34.5332 2.14221 36.1217 2.42775 37.1508 2.82953C37.6709 3.03262 37.8825 3.48827 37.9665 3.78717C38.0523 4.09297 38.0673 4.43557 38.0559 4.76508C38.0326 5.4367 37.8858 6.3544 37.639 7.50898C37.1416 9.83559 36.1878 13.3462 34.7684 18.263C32.774 25.1713 28.3288 35.4301 26.1605 40.8152L26.1571 40.8245C24.9652 43.7021 24.0934 45.4681 23.3195 46.6953C22.5269 47.952 21.8471 48.6242 21.1022 49.3188L21.094 49.3274L21.0849 49.3349C20.3961 49.9468 19.954 50.2465 18.7584 50.768C18.2522 50.9887 17.6633 50.7576 17.4424 50.2515C17.2216 49.7453 17.4529 49.1555 17.9591 48.9346C18.9825 48.4882 19.242 48.2966 19.7522 47.8437C20.4289 47.2123 20.9681 46.6736 21.6274 45.6282C22.3091 44.5473 23.1283 42.9078 24.3049 40.0679C26.5161 34.5765 30.8909 24.4865 32.8478 17.7083C34.2687 12.7863 35.2019 9.33946 35.6826 7.09106C35.9248 5.95833 36.0401 5.18355 36.057 4.69631C36.0586 4.64982 36.0558 4.60762 36.0556 4.56964C35.3452 4.36308 34.5201 4.31212 33.88 4.57756C33.0221 4.93332 32.3848 5.21463 31.5534 6.23693C27.1596 11.6399 24.8044 17.4046 23.1206 20.2525C22.9317 20.5719 22.6055 20.9721 22.16 21.1844C21.9218 21.2978 21.5596 21.3969 21.1553 21.2746C20.7355 21.1477 20.4697 20.8433 20.3189 20.549C20.0806 20.0836 19.8101 19.2715 19.518 18.3972C19.2111 17.4789 18.8479 16.3863 18.4058 15.2385C17.5106 12.9147 16.3423 10.5032 14.8064 8.95876C14.6608 8.81241 14.5715 8.75711 14.531 8.7378C14.5186 8.73189 14.512 8.73009 14.5105 8.72973C14.5141 8.73038 14.516 8.7304 14.5113 8.73084C13.9665 8.78281 13.4318 9.03631 13.082 9.49807C13.0982 9.47669 13.0571 9.53346 12.9709 9.73991C12.8937 9.92463 12.7996 10.1818 12.6976 10.5121C12.4939 11.172 12.2655 12.0925 12.0613 13.2501C11.6531 15.5639 11.3488 18.8011 11.5365 22.7676C11.7884 28.0881 12.6529 32.5809 15.0366 37.2567C16.4106 39.9518 17.4806 41.9956 18.2092 43.3684C18.5734 44.0546 18.8518 44.5733 19.0405 44.9212C19.1349 45.0952 19.2069 45.2261 19.2551 45.3136C19.2793 45.3575 19.2971 45.3893 19.3086 45.4097C19.3145 45.4203 19.3176 45.4263 19.3186 45.4281L19.3211 45.4314C19.5781 45.8681 19.4674 46.4369 19.0502 46.7434C18.6051 47.0702 17.9793 46.9746 17.6524 46.5295C17.629 46.4977 17.6123 46.4707 17.6104 46.4678C17.6049 46.4589 17.6003 46.4512 17.5978 46.4471C17.5927 46.4386 17.5883 46.4306 17.5853 46.4254C17.579 46.4144 17.5715 46.4015 17.5643 46.3886C17.5493 46.362 17.5291 46.3254 17.5039 46.2796C17.4529 46.1871 17.379 46.052 17.2832 45.8753C17.0913 45.5215 16.8093 44.9975 16.4425 44.3063C15.7088 42.9237 14.6335 40.8703 13.2546 38.1655C10.7038 33.1621 9.79993 28.3682 9.53931 22.8621C9.34446 18.7448 9.65782 15.3597 10.0911 12.9032C10.3076 11.6757 10.5556 10.6729 10.7873 9.92246C10.9029 9.54797 11.0169 9.22769 11.1248 8.96938C11.2234 8.73305 11.3444 8.48029 11.4885 8.29003C12.2272 7.3153 13.31 6.83633 14.322 6.73984L14.4696 6.73082C15.1994 6.71337 15.7701 7.09174 16.2245 7.54863C18.0722 9.4066 19.3615 12.1548 20.2724 14.5194C20.7332 15.7159 21.1102 16.8505 21.415 17.7628C21.5295 18.1052 21.6329 18.4042 21.7221 18.6614C23.2504 15.8711 25.8075 10.1325 30.0018 4.97502C31.1354 3.58112 32.1232 3.14158 33.1144 2.73055Z" fill="var(--fill-0, white)"/>
</g>
<defs>
<clipPath id="clip0_0_7">
<rect width="43" height="52" fill="white"/>
</clipPath>
</defs>
</svg>
