<svg preserveAspectRatio="none" width="100%" height="100%" overflow="visible" style="display: block;" viewBox="0 0 33 42" fill="none" xmlns="http://www.w3.org/2000/svg">
<g id="Icon Arrrow">
<path id="Arrrow" d="M19.615 37.7473C17.4658 34.3026 16.5151 32.3222 15.6609 29.501C12.4975 21.4592 14.6264 13.1484 16.0862 9.99827C16.8403 8.08762 17.6804 6.67277 18.2065 6.03377C18.7326 5.39476 18.9897 5.57859 19.1799 5.98884C20.2815 8.36619 20.1827 10.805 22.0393 13.0021C22.5013 13.5488 23.0158 13.8538 23.3815 13.8495C25.9386 13.8193 23.3843 9.52894 21.912 3.65895C21.6288 2.52974 20.9332 2.65306 18.3492 4.25453C15.7652 5.85599 11.1249 8.97736 8.54892 10.6709C5.97293 12.3645 5.60184 12.5356 5.21949 12.7119" stroke="var(--stroke-0, white)" stroke-width="2" stroke-linecap="round"/>
</g>
</svg>
