<svg width="512" height="277" viewBox="0 0 512 277" fill="none" xmlns="http://www.w3.org/2000/svg">
<path d="M235.716 88.1293C236.906 87.3999 238.363 87.4345 239.33 87.6461C239.863 87.7628 240.133 88.1704 240.255 88.4346C240.379 88.7053 240.441 89.0154 240.477 89.3085C240.55 89.9072 240.548 90.7343 240.491 91.7743C240.378 93.8722 240.03 97.0625 239.471 101.536C238.684 107.83 236.222 117.379 235.077 122.357L235.075 122.367C234.433 125.037 233.915 126.701 233.406 127.885C232.883 129.101 232.378 129.789 231.822 130.5L231.815 130.51L231.808 130.519C231.283 131.157 230.93 131.487 229.952 132.111C229.486 132.408 228.869 132.271 228.571 131.806C228.274 131.34 228.411 130.721 228.876 130.424C229.695 129.902 229.885 129.707 230.257 129.255C230.755 128.616 231.144 128.083 231.568 127.096C232.01 126.07 232.496 124.536 233.13 121.9C234.302 116.808 236.716 107.444 237.486 101.288C238.046 96.809 238.386 93.6848 238.495 91.6667C238.55 90.6489 238.542 89.9669 238.491 89.5515C238.491 89.5461 238.489 89.541 238.488 89.5359C237.883 89.473 237.229 89.5479 236.761 89.8342C236.071 90.2574 235.574 90.5771 235.005 91.5566C231.929 96.8537 230.682 102.166 229.599 104.898C229.474 105.213 229.235 105.63 228.849 105.895C228.642 106.037 228.311 106.187 227.903 106.131C227.48 106.072 227.181 105.82 226.996 105.567C226.718 105.185 226.365 104.505 225.993 103.789C225.6 103.031 225.135 102.133 224.594 101.198C223.497 99.3005 222.159 97.3818 220.631 96.2644C220.513 96.1784 220.443 96.1457 220.412 96.1336C219.987 96.2508 219.604 96.5204 219.385 96.9218C219.393 96.9076 219.367 96.9602 219.326 97.1281C219.286 97.2949 219.241 97.528 219.198 97.827C219.112 98.4236 219.04 99.2507 219.021 100.282C218.984 102.343 219.163 105.194 219.87 108.611C220.818 113.196 222.184 116.97 224.888 120.693C226.454 122.85 227.666 124.481 228.488 125.575C228.899 126.122 229.213 126.535 229.424 126.811C229.53 126.95 229.61 127.054 229.664 127.123C229.691 127.157 229.711 127.182 229.723 127.198C229.73 127.206 229.734 127.211 229.734 127.211L229.736 127.213C230.058 127.604 230.037 128.184 229.673 128.551C229.284 128.944 228.651 128.947 228.259 128.558C228.231 128.53 228.21 128.506 228.208 128.504C228.201 128.496 228.195 128.489 228.192 128.485C228.186 128.478 228.181 128.471 228.178 128.467C228.17 128.458 228.161 128.447 228.153 128.437C228.136 128.415 228.113 128.386 228.085 128.349C228.028 128.275 227.944 128.168 227.837 128.027C227.621 127.745 227.303 127.328 226.889 126.777C226.06 125.674 224.842 124.033 223.27 121.868C220.349 117.847 218.898 113.783 217.912 109.016C217.175 105.451 216.982 102.453 217.021 100.247C217.041 99.1446 217.119 98.2331 217.218 97.5426C217.268 97.1979 217.324 96.8993 217.384 96.655C217.438 96.434 217.51 96.1852 217.617 95.9859L217.721 95.8067C218.258 94.931 219.106 94.4033 219.945 94.1876L220.082 94.1577C220.759 94.0342 221.341 94.306 221.812 94.6503C223.696 96.0289 225.207 98.262 226.326 100.197C226.893 101.178 227.378 102.115 227.768 102.867C227.863 103.048 227.952 103.213 228.031 103.365C228.974 100.658 230.422 95.4658 233.275 90.5522C234.085 89.1586 234.903 88.6277 235.716 88.1293Z" fill="#FFB5E3"/>
<path d="M273.887 73.8546C275.256 73.582 276.612 74.1185 277.445 74.6514C277.905 74.9454 278.018 75.4213 278.04 75.7111C278.063 76.0081 278.014 76.3204 277.946 76.6079C277.808 77.1949 277.52 77.9701 277.107 78.9265C276.275 80.8557 274.845 83.7287 272.773 87.7327C269.857 93.366 264.244 101.474 261.447 105.748L261.442 105.757C259.916 108.04 258.854 109.422 257.968 110.357C257.056 111.317 256.344 111.788 255.577 112.262L255.567 112.269L255.556 112.275C254.844 112.692 254.398 112.879 253.265 113.127C252.725 113.244 252.193 112.902 252.075 112.363C251.957 111.823 252.299 111.29 252.839 111.172C253.788 110.965 254.033 110.848 254.538 110.552C255.227 110.126 255.777 109.76 256.516 108.981C257.285 108.171 258.272 106.9 259.779 104.646C262.64 100.274 268.144 92.3231 270.996 86.8132C273.071 82.8045 274.47 79.9906 275.271 78.1349C275.675 77.1989 275.904 76.5565 275.999 76.1491C276.001 76.1438 276.001 76.1385 276.002 76.1334C275.456 75.865 274.816 75.709 274.278 75.8159C273.484 75.974 272.907 76.102 272.035 76.8243C267.316 80.7302 264.308 85.2835 262.347 87.4722C262.121 87.7248 261.752 88.0331 261.299 88.1479C261.056 88.2095 260.692 88.2358 260.33 88.0421C259.953 87.8408 259.759 87.5008 259.674 87.1991C259.545 86.745 259.449 85.9844 259.348 85.1837C259.241 84.3371 259.115 83.3332 258.931 82.2686C258.558 80.1092 257.966 77.846 256.919 76.2691C256.839 76.1477 256.784 76.0928 256.759 76.0705C256.32 76.0336 255.867 76.1538 255.523 76.4549C255.535 76.4443 255.493 76.4848 255.397 76.6282C255.301 76.7707 255.178 76.9738 255.034 77.2395C254.748 77.7696 254.394 78.5206 254.019 79.4818C253.272 81.4029 252.453 84.1392 251.934 87.5901C251.238 92.22 251.214 96.2331 252.463 100.663C253.186 103.227 253.759 105.177 254.152 106.488C254.349 107.143 254.5 107.639 254.603 107.972C254.654 108.138 254.694 108.264 254.72 108.347C254.733 108.389 254.743 108.419 254.75 108.438C254.753 108.448 254.755 108.454 254.755 108.454L254.756 108.457C254.923 108.935 254.703 109.472 254.234 109.691C253.734 109.924 253.139 109.708 252.905 109.208C252.889 109.172 252.877 109.142 252.876 109.139C252.872 109.129 252.869 109.121 252.868 109.116C252.865 109.107 252.862 109.099 252.86 109.094C252.857 109.083 252.852 109.07 252.848 109.057C252.839 109.031 252.828 108.995 252.814 108.951C252.786 108.862 252.745 108.733 252.693 108.563C252.587 108.224 252.434 107.723 252.236 107.062C251.84 105.741 251.264 103.78 250.538 101.205C249.189 96.4215 249.233 92.1063 249.957 87.2927C250.499 83.6925 251.355 80.8128 252.155 78.7567C252.555 77.7295 252.943 76.9012 253.275 76.2877C253.441 75.9815 253.597 75.7209 253.738 75.5123C253.865 75.3235 254.019 75.1152 254.188 74.9651L254.347 74.8328C255.154 74.1969 256.133 73.9955 256.994 74.0833L257.133 74.1024C257.811 74.221 258.263 74.6771 258.586 75.1631C259.877 77.1085 260.522 79.7262 260.902 81.9289C261.095 83.045 261.226 84.0926 261.332 84.9329C261.358 85.1359 261.384 85.3216 261.407 85.491C263.228 83.278 266.382 78.9068 270.759 75.2836C272.001 74.2561 272.952 74.0408 273.887 73.8546Z" fill="#FFB5E3"/>
<path d="M241.054 26.7365C243.091 26.1347 245.611 26.2852 247.355 26.6022C247.809 26.6847 248.183 26.9356 248.442 27.3036C248.679 27.6413 248.794 28.0397 248.852 28.4215C248.966 29.1784 248.898 30.1865 248.711 31.4046C248.334 33.8694 247.407 37.5832 245.968 42.7588C243.935 50.0713 238.286 61.018 235.638 66.702L235.635 66.7097L235.631 66.7163C234.144 69.7832 232.978 71.6846 231.866 73.0182C230.735 74.374 229.69 75.1056 228.547 75.8587L228.537 75.865L228.528 75.8714C227.49 76.5206 226.841 76.8297 224.923 77.4233C224.396 77.5866 223.835 77.2918 223.672 76.7644C223.508 76.2368 223.804 75.6763 224.332 75.513C226.121 74.9591 226.606 74.7126 227.452 74.1839C228.54 73.4666 229.389 72.8646 230.329 71.7376C231.289 70.5863 232.373 68.852 233.831 65.8438C236.561 59.9873 242.069 49.3185 244.041 42.223C245.483 37.0373 246.377 33.4322 246.734 31.1019C246.914 29.9227 246.941 29.1641 246.874 28.7202C246.862 28.6432 246.849 28.5857 246.837 28.5443C245.252 28.275 243.176 28.195 241.621 28.6544C240.09 29.1066 238.918 29.4843 237.62 30.6419C231.025 36.5248 228.139 42.6107 225.763 45.6917C225.466 46.0772 225.006 46.441 224.471 46.6207C223.91 46.8092 223.153 46.8178 222.525 46.259C222.019 45.808 221.371 44.9963 220.659 44.1051C219.917 43.1768 219.036 42.0713 218.004 40.9129C215.934 38.5903 213.303 36.1149 210.111 34.552C209.451 34.229 209.004 34.1472 208.589 34.1864C207.332 34.3054 206.254 34.6971 205.682 35.2437C205.677 35.2517 205.631 35.3127 205.557 35.4642C205.469 35.6433 205.367 35.899 205.263 36.2335C205.055 36.9015 204.854 37.8408 204.747 39.0264C204.534 41.3938 204.695 44.7124 205.878 48.7602C207.462 54.1781 209.942 58.7516 215.204 63.4534C218.22 66.1487 220.558 68.1909 222.146 69.5626C222.94 70.2485 223.547 70.7665 223.957 71.1143C224.162 71.2883 224.318 71.4197 224.423 71.5076C224.476 71.5516 224.515 71.5843 224.54 71.6054C224.553 71.6159 224.561 71.6221 224.565 71.6253L224.497 71.5768C224.96 71.8777 225.091 72.4967 224.791 72.9597C224.49 73.4229 223.87 73.5551 223.407 73.2543C223.377 73.2351 223.355 73.218 223.351 73.2153C223.343 73.2092 223.336 73.2038 223.332 73.2006C223.324 73.1941 223.316 73.1875 223.311 73.1829C223.299 73.1733 223.284 73.162 223.269 73.1495C223.238 73.1238 223.194 73.0878 223.14 73.0422C223.03 72.9507 222.871 72.8166 222.663 72.6406C222.248 72.2885 221.637 71.766 220.839 71.0765C219.242 69.6975 216.897 67.6475 213.872 64.9445C208.304 59.9697 205.637 55.0617 203.959 49.321C202.707 45.0371 202.52 41.4678 202.756 38.8472C202.874 37.5388 203.098 36.4582 203.353 35.639C203.48 35.2302 203.618 34.8754 203.761 34.5841C203.894 34.3135 204.065 34.0257 204.284 33.8137L204.486 33.6303C205.528 32.7478 207.033 32.3252 208.4 32.1957C209.292 32.1112 210.115 32.3279 210.99 32.7563C214.52 34.4846 217.355 37.1788 219.497 39.5825C220.571 40.787 221.484 41.9332 222.221 42.8564C222.96 43.7812 223.47 44.4086 223.816 44.7296C223.821 44.7282 223.828 44.7268 223.834 44.7247C223.884 44.7077 223.951 44.6749 224.02 44.6236C224.09 44.5724 224.144 44.5158 224.179 44.4703C226.234 41.8055 229.531 35.1762 236.289 29.1487C237.939 27.6769 239.482 27.2008 241.054 26.7365Z" fill="#FFB5E3"/>
<path d="M185.744 61.03C186.772 59.5118 188.558 58.7388 189.878 58.4568C190.45 58.3347 190.907 58.6088 191.173 58.8397C191.445 59.0755 191.681 59.3983 191.891 59.7424C192.317 60.4411 192.789 61.4845 193.326 62.8596C194.406 65.6268 195.826 69.9479 197.731 76.0699C200.402 84.6546 202.819 98.4277 204.266 105.57L204.269 105.579C205.005 109.407 205.307 111.839 205.343 113.634C205.38 115.465 205.139 116.612 204.841 117.842L204.838 117.854L204.834 117.865C204.543 118.952 204.301 119.546 203.422 120.896C203.121 121.359 202.501 121.49 202.038 121.189C201.575 120.887 201.444 120.268 201.745 119.806C202.523 118.61 202.672 118.207 202.903 117.348C203.177 116.211 203.375 115.252 203.343 113.674C203.311 112.05 203.034 109.751 202.305 105.958C200.835 98.7012 198.452 85.1168 195.822 76.6649C193.915 70.5374 192.513 66.2799 191.463 63.5872C190.934 62.2327 190.514 61.3253 190.184 60.7841C190.104 60.653 190.036 60.5577 189.984 60.4891C189.009 60.7566 187.963 61.3183 187.4 62.1509C186.737 63.1297 186.239 63.9041 186.068 65.6069C185.194 74.3104 186.708 82.03 186.907 86.1194C186.928 86.5575 186.865 87.1435 186.581 87.6128C186.43 87.8621 186.164 88.161 185.736 88.2881C185.293 88.4197 184.877 88.3086 184.558 88.128C184.008 87.8174 183.186 87.17 182.269 86.4501C181.315 85.7016 180.178 84.8056 178.918 83.9059C176.376 82.089 173.455 80.3452 170.729 79.7771C170.459 79.7209 170.297 79.7201 170.202 79.7332C170.125 79.7439 170.088 79.764 170.053 79.7921C169.473 80.2592 169.046 80.955 168.993 81.7604C168.993 81.7604 168.995 81.8749 169.048 82.1546C169.096 82.4109 169.178 82.7528 169.3 83.1744C169.545 84.0166 169.944 85.1468 170.532 86.5065C171.708 89.225 173.631 92.8373 176.573 96.8724C180.518 102.283 184.544 106.415 190.301 109.686C193.597 111.558 196.126 112.96 197.836 113.894C198.691 114.361 199.341 114.712 199.779 114.946C199.998 115.063 200.164 115.151 200.275 115.209C200.331 115.239 200.372 115.26 200.399 115.274C200.412 115.281 200.42 115.285 200.424 115.287L200.431 115.291C200.886 115.514 201.107 116.049 200.927 116.535C200.736 117.053 200.161 117.317 199.643 117.125C199.605 117.111 199.576 117.099 199.573 117.097C199.563 117.093 199.555 117.088 199.55 117.086C199.541 117.081 199.532 117.078 199.526 117.075C199.513 117.068 199.498 117.059 199.482 117.051C199.448 117.034 199.402 117.01 199.345 116.98C199.228 116.918 199.058 116.828 198.836 116.709C198.392 116.472 197.736 116.119 196.877 115.649C195.158 114.71 192.619 113.303 189.313 111.425C183.236 107.973 179.011 103.612 174.956 98.0508C171.925 93.8934 169.929 90.1516 168.696 87.3001C168.08 85.8751 167.652 84.6656 167.38 83.7324C167.245 83.2667 167.145 82.8616 167.082 82.5271C167.023 82.2158 166.981 81.8944 166.998 81.6294C167.094 80.1816 167.853 78.9957 168.799 78.2342C169.5 77.6699 170.328 77.6509 171.137 77.8193C174.296 78.4777 177.503 80.4368 180.082 82.2792C181.383 83.2091 182.555 84.1319 183.504 84.8765C184.067 85.3186 184.528 85.6773 184.891 85.9445C184.654 82.1311 183.208 74.0759 184.078 65.4071C184.297 63.2277 185.001 62.1282 185.744 61.03Z" fill="#FFB5E3"/>
<path d="M419.866 184.909C421.182 185.373 422.074 186.525 422.519 187.409C422.765 187.896 422.619 188.363 422.491 188.624C422.359 188.891 422.157 189.134 421.952 189.347C421.534 189.781 420.891 190.301 420.048 190.913C418.348 192.148 415.653 193.89 411.828 196.277C406.447 199.635 397.483 203.747 392.898 205.997L392.889 206.001C390.412 207.187 388.794 207.834 387.554 208.186C386.281 208.547 385.428 208.589 384.526 208.605L384.514 208.606H384.502C383.676 208.601 383.197 208.535 382.096 208.169C381.572 207.995 381.289 207.43 381.462 206.906C381.636 206.382 382.203 206.097 382.727 206.271C383.648 206.577 383.92 206.601 384.505 206.605C385.315 206.59 385.974 206.555 387.008 206.262C388.082 205.957 389.579 205.368 392.025 204.197C396.716 201.896 405.506 197.865 410.769 194.58C414.599 192.191 417.237 190.484 418.872 189.296C419.697 188.697 420.222 188.261 420.512 187.96C420.516 187.956 420.519 187.951 420.522 187.947C420.189 187.438 419.719 186.977 419.201 186.795C418.438 186.526 417.876 186.342 416.757 186.518C410.706 187.471 405.797 189.853 402.994 190.736C402.67 190.838 402.195 190.914 401.747 190.782C401.507 190.711 401.181 190.548 400.967 190.197C400.746 189.831 400.753 189.44 400.833 189.137C400.954 188.681 401.26 187.978 401.581 187.237C401.921 186.455 402.325 185.527 402.71 184.518C403.49 182.47 404.135 180.221 404.039 178.331C404.032 178.185 404.013 178.11 404.002 178.078C403.644 177.823 403.193 177.695 402.743 177.778C402.759 177.776 402.702 177.789 402.546 177.863C402.391 177.937 402.182 178.049 401.923 178.204C401.406 178.514 400.718 178.979 399.906 179.615C398.283 180.886 396.184 182.822 393.977 185.526C391.017 189.153 388.949 192.593 387.764 197.04C387.078 199.615 386.576 201.584 386.246 202.912C386.08 203.576 385.957 204.08 385.876 204.418C385.836 204.588 385.806 204.715 385.786 204.801C385.776 204.843 385.769 204.874 385.765 204.894C385.763 204.904 385.761 204.911 385.761 204.911V204.914C385.66 205.41 385.198 205.759 384.683 205.709C384.133 205.654 383.732 205.165 383.786 204.615C383.79 204.576 383.795 204.545 383.796 204.541C383.798 204.531 383.799 204.522 383.8 204.518C383.802 204.508 383.804 204.5 383.805 204.495C383.808 204.483 383.81 204.469 383.813 204.456C383.819 204.43 383.828 204.394 383.838 204.349C383.86 204.258 383.89 204.125 383.932 203.953C384.014 203.607 384.138 203.098 384.305 202.429C384.638 201.09 385.143 199.11 385.832 196.525C387.111 191.722 389.35 188.033 392.428 184.262C394.73 181.441 396.935 179.401 398.672 178.04C399.54 177.361 400.297 176.847 400.895 176.488C401.194 176.309 401.461 176.165 401.688 176.057C401.894 175.959 402.133 175.859 402.355 175.816L402.559 175.783C403.577 175.648 404.522 175.974 405.219 176.489L405.328 176.576C405.851 177.024 406.007 177.647 406.036 178.229C406.155 180.561 405.374 183.142 404.578 185.231C404.175 186.289 403.753 187.257 403.416 188.034C403.334 188.221 403.262 188.395 403.195 188.552C405.89 187.577 410.833 185.426 416.446 184.542C418.038 184.292 418.966 184.592 419.866 184.909Z" fill="#FFB5E3"/>
<path d="M455.015 205.532C456.09 206.423 456.528 207.813 456.64 208.796C456.702 209.339 456.404 209.726 456.193 209.926C455.977 210.131 455.703 210.29 455.438 210.419C454.895 210.682 454.111 210.947 453.109 211.23C451.087 211.8 447.955 212.502 443.541 213.419C437.33 214.708 427.498 215.465 422.417 215.989L422.407 215.991C419.673 216.246 417.931 216.294 416.646 216.195C415.327 216.093 414.512 215.837 413.66 215.541L413.648 215.538L413.637 215.533C412.864 215.243 412.438 215.015 411.531 214.292C411.099 213.947 411.029 213.318 411.373 212.887C411.718 212.455 412.348 212.384 412.779 212.729C413.538 213.335 413.784 213.451 414.332 213.657C415.097 213.923 415.728 214.118 416.799 214.201C417.913 214.287 419.521 214.251 422.221 214C427.418 213.463 437.06 212.721 443.135 211.46C447.554 210.543 450.62 209.854 452.565 209.305C453.546 209.028 454.189 208.801 454.566 208.619C454.571 208.616 454.575 208.613 454.58 208.611C454.444 208.017 454.161 207.423 453.739 207.073C453.116 206.556 452.653 206.189 451.542 205.967C445.535 204.768 440.104 205.305 437.169 205.163C436.83 205.147 436.358 205.055 435.984 204.776C435.782 204.626 435.533 204.36 435.454 203.957C435.373 203.537 435.515 203.173 435.695 202.916C435.966 202.529 436.496 201.976 437.054 201.392C437.643 200.775 438.343 200.045 439.054 199.231C440.494 197.579 441.877 195.693 442.441 193.886C442.485 193.747 442.493 193.67 442.494 193.636C442.246 193.272 441.867 192.996 441.416 192.919C441.432 192.922 441.374 192.915 441.202 192.931C441.031 192.946 440.796 192.979 440.499 193.035C439.907 193.147 439.101 193.345 438.119 193.661C436.157 194.292 433.517 195.383 430.511 197.156C426.479 199.535 423.349 202.047 420.699 205.81C419.165 207.988 418.013 209.662 417.243 210.794C416.858 211.36 416.569 211.79 416.375 212.08C416.279 212.225 416.206 212.334 416.158 212.407C416.134 212.444 416.117 212.47 416.106 212.487C416.101 212.496 416.097 212.502 416.097 212.502L416.096 212.504C415.83 212.935 415.275 213.103 414.809 212.877C414.312 212.636 414.105 212.038 414.346 211.541C414.363 211.506 414.379 211.479 414.381 211.476C414.386 211.467 414.391 211.459 414.393 211.455C414.398 211.447 414.403 211.439 414.406 211.435C414.412 211.425 414.419 211.413 414.426 211.402C414.441 211.379 414.462 211.348 414.487 211.309C414.539 211.231 414.613 211.118 414.712 210.97C414.909 210.675 415.201 210.239 415.589 209.669C416.365 208.528 417.524 206.845 419.064 204.658C421.926 200.594 425.303 197.907 429.495 195.434C432.631 193.584 435.406 192.432 437.506 191.757C438.555 191.419 439.443 191.199 440.129 191.069C440.471 191.005 440.772 190.962 441.022 190.939C441.249 190.919 441.508 190.907 441.731 190.944L441.934 190.984C442.936 191.209 443.71 191.842 444.185 192.566L444.257 192.685C444.593 193.287 444.524 193.925 444.35 194.482C443.655 196.711 442.03 198.862 440.56 200.546C439.815 201.4 439.085 202.162 438.5 202.774C438.358 202.922 438.231 203.06 438.114 203.184C440.979 203.202 446.361 202.894 451.933 204.006C453.514 204.321 454.28 204.924 455.015 205.532Z" fill="#FFB5E3"/>
<path d="M470.879 150.338C472.631 151.539 474.103 153.59 474.957 155.143C475.179 155.547 475.22 155.996 475.098 156.429C474.986 156.826 474.749 157.167 474.489 157.452C473.973 158.018 473.148 158.601 472.085 159.224C469.934 160.486 466.467 162.108 461.543 164.255C454.586 167.288 442.528 169.807 436.446 171.336L436.438 171.338L436.431 171.34C433.113 172.12 430.902 172.414 429.166 172.392C427.4 172.369 426.174 172.019 424.868 171.607L424.857 171.603L424.846 171.6C423.688 171.204 423.039 170.895 421.369 169.781C420.909 169.475 420.785 168.854 421.091 168.394C421.397 167.935 422.019 167.811 422.478 168.117C424.036 169.157 424.534 169.378 425.477 169.701C426.721 170.093 427.723 170.373 429.191 170.391C430.689 170.41 432.719 170.158 435.973 169.393C442.24 167.818 453.993 165.365 460.744 162.422C465.678 160.271 469.04 158.691 471.073 157.499C472.102 156.895 472.708 156.437 473.01 156.106C473.062 156.048 473.098 156.001 473.123 155.966C472.332 154.566 471.086 152.904 469.748 151.987C468.432 151.084 467.4 150.413 465.683 150.135C456.958 148.726 450.415 150.324 446.526 150.423C446.039 150.436 445.467 150.308 444.99 150.006C444.49 149.69 444.006 149.107 444.044 148.268C444.074 147.59 444.296 146.576 444.538 145.461C444.791 144.3 445.094 142.92 445.342 141.388C445.839 138.316 446.101 134.713 445.301 131.251C445.136 130.535 444.918 130.137 444.625 129.839C443.74 128.939 442.756 128.349 441.972 128.25C441.962 128.251 441.886 128.253 441.721 128.291C441.527 128.336 441.264 128.418 440.939 128.548C440.289 128.808 439.434 129.245 438.446 129.91C436.474 131.237 434 133.454 431.605 136.925C428.399 141.571 426.413 146.38 426.082 153.428C425.892 157.469 425.781 160.571 425.718 162.669C425.686 163.717 425.667 164.515 425.656 165.053C425.65 165.322 425.647 165.526 425.645 165.663C425.644 165.731 425.643 165.782 425.643 165.815C425.643 165.832 425.643 165.842 425.643 165.847L425.637 165.763C425.696 166.312 425.298 166.805 424.749 166.863C424.2 166.922 423.707 166.524 423.648 165.975C423.644 165.94 423.643 165.912 423.643 165.907C423.643 165.897 423.643 165.889 423.643 165.883C423.642 165.873 423.643 165.863 423.643 165.856C423.643 165.84 423.643 165.822 423.643 165.802C423.643 165.762 423.643 165.705 423.644 165.634C423.646 165.492 423.65 165.283 423.656 165.011C423.667 164.467 423.687 163.663 423.719 162.609C423.782 160.5 423.894 157.387 424.085 153.335C424.435 145.877 426.562 140.711 429.959 135.789C432.494 132.116 435.147 129.72 437.33 128.251C438.419 127.517 439.399 127.01 440.196 126.691C440.593 126.532 440.956 126.416 441.272 126.343C441.566 126.275 441.897 126.226 442.2 126.263L442.47 126.304C443.811 126.556 445.089 127.458 446.051 128.437C446.679 129.076 447.03 129.851 447.249 130.801C448.134 134.63 447.83 138.529 447.316 141.708C447.058 143.3 446.744 144.732 446.493 145.887C446.241 147.043 446.075 147.834 446.045 148.305C446.049 148.309 446.054 148.313 446.06 148.316C446.105 148.345 446.172 148.375 446.255 148.397C446.339 148.418 446.417 148.425 446.475 148.424C449.839 148.338 457.063 146.717 466.002 148.161C468.185 148.513 469.528 149.41 470.879 150.338Z" fill="#FFB5E3"/>
<path d="M409.386 129.036C411.212 128.876 412.938 129.775 413.99 130.622C414.445 130.989 414.52 131.516 414.509 131.868C414.497 132.228 414.396 132.615 414.261 132.995C413.988 133.766 413.476 134.791 412.747 136.074C411.28 138.657 408.822 142.485 405.272 147.824C400.294 155.31 391.128 165.871 386.498 171.498L386.492 171.506C383.985 174.491 382.289 176.259 380.918 177.419C379.52 178.602 378.478 179.139 377.335 179.683L377.324 179.688L377.313 179.693C376.287 180.152 375.672 180.338 374.071 180.508C373.521 180.566 373.029 180.167 372.971 179.618C372.913 179.069 373.31 178.577 373.859 178.518C375.278 178.368 375.685 178.23 376.497 177.867C377.553 177.363 378.421 176.912 379.626 175.892C380.865 174.843 382.476 173.178 384.96 170.22C389.665 164.503 398.705 154.088 403.606 146.717C407.16 141.373 409.58 137.6 411.007 135.087C411.725 133.822 412.164 132.924 412.376 132.327C412.427 132.182 412.459 132.069 412.479 131.985C411.656 131.397 410.561 130.94 409.56 131.028C408.382 131.131 407.467 131.233 406.038 132.174C398.732 136.984 393.695 143.026 390.647 145.76C390.32 146.053 389.825 146.373 389.282 146.449C388.994 146.489 388.593 146.47 388.225 146.219C387.844 145.958 387.667 145.565 387.606 145.203C387.501 144.581 387.485 143.534 387.465 142.369C387.445 141.157 387.423 139.709 387.327 138.164C387.134 135.045 386.645 131.678 385.367 129.204C385.241 128.96 385.139 128.833 385.069 128.768C385.012 128.715 384.973 128.699 384.929 128.69C384.201 128.534 383.392 128.641 382.733 129.108C382.733 129.108 382.645 129.181 382.462 129.399C382.293 129.598 382.08 129.877 381.83 130.238C381.331 130.959 380.705 131.982 380.02 133.295C378.652 135.922 377.061 139.692 375.784 144.52C374.073 150.994 373.405 156.724 374.497 163.255C375.122 166.994 375.629 169.841 375.982 171.757C376.159 172.715 376.297 173.441 376.391 173.928C376.438 174.172 376.475 174.356 376.5 174.479C376.512 174.541 376.521 174.586 376.527 174.616C376.53 174.631 376.532 174.64 376.533 174.644L376.535 174.651C376.649 175.145 376.372 175.654 375.882 175.821C375.359 175.999 374.791 175.719 374.614 175.196C374.601 175.159 374.592 175.128 374.591 175.124C374.589 175.114 374.587 175.105 374.586 175.1C374.584 175.09 374.581 175.081 374.579 175.074C374.576 175.06 374.574 175.042 374.57 175.025C374.562 174.988 374.552 174.937 374.539 174.873C374.513 174.744 374.475 174.555 374.428 174.308C374.332 173.814 374.193 173.082 374.015 172.119C373.66 170.192 373.151 167.335 372.524 163.585C371.371 156.692 372.091 150.662 373.85 144.009C375.166 139.034 376.811 135.126 378.246 132.37C378.964 130.994 379.633 129.899 380.186 129.1C380.462 128.701 380.714 128.368 380.933 128.108C381.138 127.866 381.361 127.631 381.577 127.477C382.761 126.638 384.16 126.48 385.347 126.733C386.227 126.922 386.765 127.553 387.144 128.287C388.625 131.153 389.127 134.878 389.323 138.041C389.422 139.638 389.445 141.129 389.465 142.335C389.477 143.051 389.49 143.635 389.511 144.085C392.321 141.496 397.661 135.294 404.938 130.503C406.767 129.299 408.064 129.152 409.386 129.036Z" fill="#FFB5E3"/>
<path d="M83.7869 224.152C84.8618 225.043 85.3001 226.433 85.4122 227.416C85.474 227.958 85.1756 228.346 84.9648 228.546C84.7487 228.751 84.4752 228.91 84.2095 229.038C83.6667 229.301 82.8832 229.566 81.8808 229.849C79.8588 230.42 76.7274 231.122 72.313 232.038C66.1022 233.328 56.27 234.084 51.1891 234.609L51.1792 234.61C48.445 234.866 46.7028 234.913 45.4181 234.814C44.0985 234.713 43.2839 234.457 42.4315 234.161L42.42 234.157L42.4091 234.153C41.636 233.863 41.2096 233.635 40.3029 232.911C39.8714 232.567 39.801 231.938 40.1453 231.506C40.4899 231.075 41.1195 231.004 41.5511 231.348C42.3101 231.954 42.5561 232.071 43.1041 232.276C43.8694 232.542 44.4997 232.738 45.5709 232.82C46.6845 232.906 48.2933 232.871 50.9929 232.619C56.19 232.083 65.8319 231.341 71.9066 230.08C76.3262 229.162 79.3923 228.474 81.3374 227.925C82.3183 227.648 82.9613 227.421 83.338 227.238C83.3428 227.236 83.3471 227.233 83.3518 227.23C83.2157 226.637 82.9334 226.042 82.5113 225.692C81.8877 225.175 81.4245 224.808 80.3138 224.587C74.3067 223.388 68.8763 223.925 65.9411 223.783C65.6024 223.767 65.1302 223.674 64.7554 223.395C64.5543 223.245 64.3048 222.98 64.2263 222.576C64.1448 222.157 64.2869 221.792 64.4669 221.536C64.738 221.149 65.2683 220.596 65.8258 220.012C66.4153 219.395 67.1153 218.664 67.8255 217.85C69.2662 216.199 70.6494 214.312 71.2131 212.506C71.2565 212.366 71.2647 212.289 71.266 212.256C71.0179 211.892 70.6389 211.616 70.1884 211.539C70.2043 211.542 70.1463 211.535 69.9742 211.55C69.8032 211.566 69.5682 211.599 69.2713 211.655C68.6789 211.766 67.8729 211.965 66.891 212.281C64.9284 212.912 62.2888 214.002 59.2832 215.776C55.2507 218.155 52.1209 220.667 49.4709 224.429C47.9365 226.608 46.7845 228.282 46.015 229.413C45.6302 229.979 45.3406 230.41 45.1473 230.699C45.0508 230.844 44.9783 230.954 44.9302 231.027C44.9062 231.063 44.8893 231.09 44.8783 231.107C44.8727 231.116 44.869 231.122 44.869 231.122L44.8677 231.124C44.6016 231.555 44.0468 231.723 43.581 231.497C43.0842 231.256 42.8766 230.658 43.1176 230.161C43.1348 230.126 43.1509 230.098 43.1526 230.095C43.1578 230.086 43.1626 230.078 43.165 230.074C43.17 230.066 43.1749 230.059 43.1778 230.054C43.1841 230.044 43.1912 230.033 43.1984 230.021C43.2132 229.998 43.2339 229.968 43.2593 229.929C43.3106 229.851 43.3853 229.737 43.4837 229.59C43.6806 229.294 43.9731 228.859 44.3608 228.289C45.1366 227.148 46.2954 225.465 47.8361 223.277C50.6979 219.214 54.0748 216.527 58.2672 214.054C61.4028 212.204 64.1775 211.052 66.278 210.376C67.3273 210.039 68.2151 209.818 68.9006 209.689C69.2427 209.624 69.5436 209.582 69.794 209.559C70.0206 209.538 70.2795 209.527 70.5026 209.563L70.7056 209.603C71.7079 209.829 72.4817 210.461 72.9568 211.185L73.0293 211.305C73.3651 211.906 73.2959 212.544 73.1222 213.101C72.4267 215.33 70.8015 217.481 69.332 219.166C68.5874 220.019 67.8567 220.781 67.2716 221.394C67.1303 221.542 67.003 221.679 66.8856 221.804C69.7514 221.821 75.1332 221.513 80.7053 222.625C82.2856 222.941 83.0524 223.543 83.7869 224.152Z" fill="#FFB5E3"/>
<path d="M99.6512 168.957C101.403 170.159 102.875 172.209 103.729 173.763C103.951 174.167 103.992 174.616 103.87 175.049C103.757 175.446 103.521 175.786 103.261 176.072C102.745 176.638 101.92 177.22 100.857 177.844C98.7061 179.105 95.239 180.727 90.3148 182.874C83.3576 185.908 71.2995 188.427 65.2182 189.956L65.2101 189.958L65.2029 189.96C61.885 190.74 59.6737 191.033 57.9376 191.011C56.1723 190.989 54.9456 190.639 53.6401 190.227L53.6288 190.223L53.6181 190.22C52.46 189.824 51.8106 189.515 50.1406 188.401C49.6812 188.094 49.5565 187.473 49.8628 187.014C50.1693 186.554 50.7907 186.43 51.2502 186.737C52.8083 187.776 53.3055 187.997 54.2492 188.32C55.4925 188.713 56.4951 188.992 57.9624 189.011C59.4613 189.03 61.4906 188.778 64.745 188.012C71.0115 186.438 82.765 183.985 89.5158 181.041C94.4496 178.89 97.8114 177.311 99.8448 176.118C100.874 175.515 101.479 175.057 101.782 174.725C101.834 174.668 101.87 174.621 101.895 174.585C101.104 173.185 99.8575 171.524 98.5201 170.606C97.204 169.704 96.1719 169.032 94.455 168.755C85.73 167.346 79.1868 168.944 75.2975 169.043C74.811 169.055 74.2384 168.927 73.7619 168.626C73.2619 168.31 72.7776 167.727 72.8154 166.888C72.8461 166.21 73.0679 165.196 73.3104 164.081C73.5631 162.92 73.8656 161.539 74.1135 160.007C74.6106 156.936 74.8728 153.333 74.0729 149.87C73.9076 149.155 73.6894 148.756 73.3972 148.459C72.5123 147.558 71.5282 146.968 70.7436 146.869C70.7342 146.871 70.6577 146.873 70.4932 146.911C70.2989 146.956 70.036 147.038 69.7107 147.168C69.0611 147.428 68.2057 147.865 67.2182 148.529C65.2463 149.856 62.7722 152.074 60.3767 155.545C57.1704 160.19 55.185 164.999 54.8539 172.048C54.6641 176.089 54.5531 179.191 54.4899 181.288C54.4583 182.337 54.4391 183.135 54.4279 183.673C54.4223 183.941 54.4185 184.145 54.4166 184.282C54.4156 184.351 54.4148 184.402 54.4146 184.435C54.4145 184.451 54.4146 184.461 54.4146 184.466L54.4093 184.383C54.4677 184.932 54.0701 185.424 53.5212 185.483C52.9721 185.542 52.4786 185.144 52.4199 184.595C52.4162 184.56 52.4153 184.531 52.4151 184.527C52.4147 184.517 52.4147 184.508 52.4146 184.503C52.4144 184.493 52.4148 184.482 52.4147 184.475C52.4147 184.46 52.4144 184.442 52.4146 184.422C52.4148 184.382 52.4152 184.325 52.4162 184.254C52.4182 184.111 52.4218 183.903 52.4274 183.631C52.4388 183.086 52.4591 182.283 52.4908 181.229C52.5544 179.12 52.6663 176.007 52.8566 171.954C53.2069 164.497 55.3337 159.331 58.731 154.409C61.2663 150.736 63.9187 148.34 66.1014 146.871C67.1913 146.137 68.1712 145.629 68.9677 145.311C69.3652 145.152 69.7279 145.035 70.044 144.962C70.3376 144.895 70.669 144.846 70.9718 144.883L71.2414 144.924C72.5831 145.176 73.8606 146.078 74.8227 147.056C75.4513 147.696 75.8017 148.471 76.021 149.42C76.9055 153.25 76.6021 157.149 76.0876 160.327C75.8298 161.92 75.516 163.351 75.2647 164.506C75.013 165.663 74.8471 166.454 74.8165 166.925C74.8209 166.928 74.8259 166.932 74.8316 166.936C74.8766 166.964 74.9437 166.995 75.0274 167.016C75.111 167.038 75.1894 167.045 75.2468 167.043C78.6107 166.958 85.835 165.336 94.7743 166.78C96.9573 167.133 98.2998 168.03 99.6512 168.957Z" fill="#FFB5E3"/>
<path d="M82.3855 87.1557C83.7021 87.6196 84.5942 88.7723 85.0395 89.6558C85.2851 90.1434 85.1392 90.6101 85.0106 90.8707C84.8788 91.1379 84.6771 91.3814 84.4723 91.5941C84.054 92.0285 83.4105 92.5483 82.5679 93.1605C80.8682 94.3955 78.173 96.1374 74.3481 98.5243C68.9667 101.882 60.0033 105.994 55.4177 108.244L55.4089 108.248C52.9318 109.434 51.3136 110.081 50.0741 110.433C48.8007 110.794 47.9479 110.836 47.0456 110.852L47.0337 110.853H47.0219C46.1962 110.848 45.7173 110.782 44.6162 110.417C44.0922 110.243 43.8086 109.677 43.9824 109.153C44.1564 108.629 44.7226 108.344 45.2467 108.518C46.1685 108.824 46.4396 108.849 47.0249 108.852C47.8349 108.837 48.4939 108.802 49.5275 108.509C50.6021 108.204 52.0994 107.615 54.5452 106.445C59.2358 104.143 68.0259 100.112 73.2893 96.8274C77.1187 94.4378 79.7573 92.731 81.3923 91.543C82.217 90.9439 82.7416 90.5081 83.0319 90.2066C83.0356 90.2027 83.0385 90.1982 83.0421 90.1944C82.7092 89.685 82.2385 89.2244 81.7215 89.0421C80.9576 88.773 80.396 88.5889 79.2772 88.7651C73.2262 89.718 68.3168 92.1004 65.5138 92.9828C65.1903 93.0846 64.7154 93.1615 64.2672 93.0292C64.0266 92.9582 63.7008 92.7955 63.4874 92.4437C63.2659 92.0784 63.2731 91.6874 63.3532 91.3841C63.4739 90.9277 63.7799 90.225 64.1011 89.4845C64.4407 88.7016 64.8449 87.7742 65.2297 86.7647C66.0102 84.7169 66.6553 82.4683 66.5592 80.578C66.5518 80.4325 66.5328 80.3574 66.5223 80.3252C66.1637 80.0697 65.7126 79.942 65.2633 80.0256C65.2792 80.0226 65.2223 80.0361 65.0663 80.1102C64.9112 80.1839 64.702 80.296 64.4428 80.4512C63.9257 80.7609 63.2381 81.2262 62.4261 81.8622C60.8031 83.1332 58.7036 85.0695 56.497 87.7731C53.5365 91.4003 51.4688 94.8397 50.2841 99.2868C49.5981 101.862 49.0962 103.831 48.7657 105.159C48.6004 105.823 48.4775 106.327 48.3965 106.665C48.356 106.835 48.3258 106.963 48.306 107.048C48.2962 107.09 48.2895 107.121 48.2851 107.141C48.2828 107.151 48.2813 107.158 48.2813 107.158L48.281 107.161C48.1804 107.657 47.7179 108.006 47.2028 107.956C46.6532 107.901 46.2516 107.412 46.3058 106.862C46.3097 106.823 46.3153 106.792 46.3159 106.789C46.3176 106.778 46.3194 106.769 46.3203 106.765C46.3221 106.755 46.3242 106.747 46.3253 106.742C46.3278 106.73 46.3304 106.716 46.3333 106.704C46.3392 106.677 46.348 106.641 46.3585 106.596C46.3796 106.505 46.4104 106.372 46.4516 106.2C46.5342 105.854 46.6581 105.345 46.8246 104.676C47.1578 103.337 47.6629 101.357 48.3517 98.7716C49.6312 93.9691 51.8701 90.2798 54.948 86.5088C57.2501 83.6882 59.4551 81.6479 61.1922 80.2876C62.06 79.6079 62.8166 79.0936 63.4151 78.7352C63.7138 78.5564 63.9813 78.412 64.2084 78.3041C64.4139 78.2065 64.6527 78.1059 64.8746 78.0631L65.0791 78.0305C66.0974 77.8951 67.0423 78.2212 67.7386 78.7361L67.8479 78.8232C68.371 79.2712 68.5268 79.894 68.5564 80.4765C68.675 82.8086 67.8942 85.3889 67.0981 87.4776C66.6947 88.536 66.2728 89.5037 65.9357 90.2808C65.8542 90.4685 65.7825 90.6418 65.7153 90.7989C68.4103 89.8242 73.3532 87.6734 78.9661 86.7895C80.5579 86.5388 81.4857 86.8387 82.3855 87.1557Z" fill="#FFB5E3"/>
<path d="M117.535 107.779C118.61 108.67 119.048 110.06 119.16 111.043C119.222 111.586 118.924 111.973 118.713 112.173C118.497 112.378 118.223 112.537 117.958 112.666C117.415 112.929 116.631 113.194 115.629 113.477C113.607 114.047 110.475 114.749 106.061 115.666C99.8502 116.955 90.018 117.712 84.9371 118.237L84.9272 118.238C82.193 118.493 80.4508 118.541 79.1662 118.442C77.8465 118.34 77.0319 118.084 76.1795 117.788L76.168 117.785L76.1571 117.78C75.384 117.49 74.9576 117.263 74.0509 116.539C73.6194 116.194 73.549 115.565 73.8933 115.134C74.2379 114.702 74.8675 114.631 75.2991 114.976C76.0581 115.582 76.3042 115.698 76.8521 115.904C77.6174 116.17 78.2478 116.365 79.3189 116.448C80.4325 116.534 82.0413 116.499 84.7409 116.247C89.938 115.71 99.5799 114.968 105.655 113.707C110.074 112.79 113.14 112.101 115.085 111.552C116.066 111.275 116.709 111.048 117.086 110.866C117.091 110.863 117.095 110.86 117.1 110.858C116.964 110.265 116.681 109.67 116.259 109.32C115.636 108.803 115.173 108.436 114.062 108.214C108.055 107.015 102.624 107.552 99.6891 107.41C99.3504 107.394 98.8782 107.302 98.5034 107.023C98.3023 106.873 98.0528 106.607 97.9743 106.204C97.8929 105.784 98.0349 105.42 98.2149 105.163C98.4861 104.777 99.0163 104.223 99.5738 103.639C100.163 103.022 100.863 102.292 101.574 101.478C103.014 99.8265 104.397 97.9399 104.961 96.133C105.005 95.9939 105.013 95.917 105.014 95.8832C104.766 95.5193 104.387 95.2434 103.936 95.1665C103.952 95.1692 103.894 95.1621 103.722 95.1777C103.551 95.1932 103.316 95.226 103.019 95.282C102.427 95.3936 101.621 95.5924 100.639 95.9082C98.6765 96.5393 96.0368 97.6298 93.0312 99.4031C88.9988 101.782 85.8689 104.294 83.2189 108.057C81.6845 110.235 80.5325 111.909 79.763 113.041C79.3782 113.607 79.0886 114.037 78.8954 114.327C78.7988 114.472 78.7263 114.581 78.6782 114.654C78.6542 114.691 78.6373 114.717 78.6264 114.734C78.6207 114.743 78.617 114.749 78.617 114.749L78.6158 114.752C78.3496 115.183 77.7948 115.35 77.329 115.124C76.8322 114.883 76.6247 114.285 76.8656 113.789C76.8828 113.753 76.8989 113.726 76.9006 113.723C76.9059 113.714 76.9106 113.706 76.913 113.702C76.918 113.694 76.9229 113.686 76.9258 113.682C76.9321 113.672 76.9392 113.66 76.9464 113.649C76.9612 113.626 76.982 113.595 77.0073 113.556C77.0586 113.478 77.1333 113.365 77.2317 113.217C77.4287 112.922 77.7211 112.487 78.1088 111.916C78.8846 110.775 80.0434 109.092 81.5841 106.905C84.4459 102.842 87.8228 100.155 92.0152 97.681C95.1508 95.831 97.9256 94.6794 100.026 94.0039C101.075 93.6665 101.963 93.4456 102.649 93.3164C102.991 93.2519 103.292 93.209 103.542 93.1863C103.769 93.1658 104.028 93.1541 104.251 93.1907L104.454 93.2309C105.456 93.456 106.23 94.0889 106.705 94.8129L106.777 94.9324C107.113 95.5337 107.044 96.1719 106.87 96.7287C106.175 98.9578 104.55 101.109 103.08 102.793C102.335 103.647 101.605 104.409 101.02 105.021C100.878 105.169 100.751 105.307 100.634 105.431C103.499 105.449 108.881 105.141 114.453 106.253C116.034 106.568 116.8 107.171 117.535 107.779Z" fill="#FFB5E3"/>
<path d="M133.399 52.5846C135.151 53.7862 136.623 55.837 137.477 57.3902C137.699 57.7944 137.74 58.2432 137.618 58.6762C137.505 59.0733 137.269 59.4136 137.009 59.6991C136.493 60.265 135.668 60.8477 134.605 61.4712C132.454 62.7328 128.987 64.3549 124.063 66.5019C117.106 69.5354 105.048 72.0542 98.9662 73.5832L98.9582 73.5854L98.9509 73.5871C95.6331 74.3671 93.4218 74.6608 91.6856 74.6387C89.9204 74.6162 88.6936 74.2664 87.3882 73.854L87.3769 73.8502L87.3662 73.8471C86.208 73.4513 85.5586 73.1421 83.8886 72.0281C83.4292 71.7217 83.3045 71.1007 83.6109 70.6413C83.9174 70.1819 84.5388 70.0579 84.9982 70.3644C86.5563 71.4037 87.0536 71.6247 87.9973 71.9478C89.2406 72.3405 90.2431 72.6197 91.7105 72.6385C93.2094 72.6576 95.2387 72.405 98.4931 71.6399C104.759 70.0652 116.513 67.6123 123.264 64.6689C128.198 62.5176 131.559 60.9383 133.593 59.7456C134.622 59.142 135.227 58.6844 135.53 58.3526C135.582 58.295 135.618 58.2481 135.643 58.2129C134.852 56.8127 133.605 55.1513 132.268 54.2338C130.952 53.331 129.92 52.6598 128.203 52.3825C119.478 50.9733 112.935 52.5712 109.046 52.6703C108.559 52.6827 107.986 52.5549 107.51 52.2535C107.01 51.937 106.526 51.3546 106.563 50.515C106.594 49.8375 106.816 48.8233 107.058 47.7085C107.311 46.5474 107.614 45.1666 107.862 43.6348C108.359 40.5634 108.621 36.9604 107.821 33.4976C107.656 32.782 107.437 32.3837 107.145 32.0862C106.26 31.1859 105.276 30.5958 104.492 30.4969C104.482 30.4981 104.406 30.5006 104.241 30.5385C104.047 30.5833 103.784 30.6651 103.459 30.7952C102.809 31.0551 101.954 31.492 100.966 32.1567C98.9943 33.484 96.5203 35.7015 94.1248 39.1723C90.9185 43.8178 88.933 48.6269 88.602 55.6755C88.4122 59.7163 88.3011 62.8182 88.2379 64.9156C88.2063 65.9644 88.1872 66.7622 88.1759 67.3C88.1703 67.569 88.1665 67.7726 88.1646 67.9097C88.1636 67.9782 88.1628 68.0291 88.1626 68.0624C88.1625 68.0788 88.1626 68.0888 88.1626 68.0938L88.1574 68.0106C88.2157 68.5594 87.8181 69.0517 87.2693 69.1105C86.7201 69.1691 86.2266 68.7714 86.168 68.2222C86.1643 68.1872 86.1633 68.1588 86.1631 68.1544C86.1627 68.1443 86.1627 68.1356 86.1626 68.1305C86.1624 68.12 86.1628 68.1099 86.1628 68.1026C86.1627 68.0873 86.1625 68.0691 86.1626 68.0495C86.1629 68.0091 86.1632 67.9523 86.1642 67.8813C86.1662 67.7386 86.1698 67.5304 86.1755 67.2583C86.1869 66.7139 86.2071 65.9102 86.2389 64.856C86.3024 62.7474 86.4144 59.6341 86.6047 55.5819C86.955 48.124 89.0818 42.9585 92.4791 38.0362C95.0143 34.363 97.6667 31.9672 99.8495 30.498C100.939 29.7645 101.919 29.2568 102.716 28.9381C103.113 28.7791 103.476 28.6627 103.792 28.5899C104.086 28.5222 104.417 28.4736 104.72 28.51L104.989 28.5511C106.331 28.803 107.609 29.7051 108.571 30.6838C109.199 31.3234 109.55 32.0983 109.769 33.0476C110.653 36.877 110.35 40.7761 109.836 43.9546C109.578 45.5475 109.264 46.9788 109.013 48.1337C108.761 49.2904 108.595 50.0811 108.565 50.5525C108.569 50.5557 108.574 50.5596 108.58 50.5633C108.625 50.5917 108.692 50.6223 108.775 50.6439C108.859 50.6655 108.937 50.6724 108.995 50.6709C112.359 50.5852 119.583 48.9638 128.522 50.4076C130.705 50.7602 132.048 51.6576 133.399 52.5846Z" fill="#FFB5E3"/>
<path d="M71.9055 31.2831C73.7318 31.1233 75.4583 32.0224 76.5095 32.8691C76.9652 33.2363 77.0402 33.7632 77.0289 34.1155C77.0173 34.4752 76.9157 34.862 76.7811 35.242C76.5077 36.0136 75.9955 37.0378 75.2667 38.3214C73.8 40.9045 71.3422 44.7319 67.792 50.0707C62.8136 57.5572 53.6483 68.1183 49.0178 73.7451L49.0117 73.753C46.5053 76.738 44.8087 78.5063 43.4378 79.6665C42.0404 80.8491 40.9975 81.3857 39.8554 81.9299L39.844 81.9352L39.8332 81.9396C38.8067 82.3986 38.1922 82.5852 36.5905 82.7549C36.0413 82.8131 35.5488 82.4141 35.4906 81.8649C35.4327 81.3159 35.8304 80.8238 36.3793 80.7655C37.7977 80.6153 38.2048 80.4768 39.0168 80.1137C40.0726 79.6102 40.9409 79.159 42.1455 78.1396C43.3854 77.0902 44.9958 75.4255 47.4797 72.4673C52.1846 66.7506 61.2247 56.3347 66.1261 48.964C69.6795 43.6204 72.0997 39.8475 73.5269 37.334C74.2448 36.0695 74.6843 35.1715 74.896 34.5738C74.9473 34.429 74.9787 34.3166 74.9988 34.2326C74.1764 33.6445 73.0811 33.1872 72.0795 33.2749C70.9022 33.378 69.987 33.4797 68.5576 34.4208C61.2517 39.2309 56.2148 45.2735 53.1667 48.0071C52.8401 48.2998 52.3451 48.6199 51.8021 48.6957C51.5136 48.736 51.1134 48.7176 50.7451 48.4658C50.3637 48.205 50.1874 47.8119 50.1262 47.4502C50.0211 46.8282 50.0046 45.7814 49.9851 44.6157C49.9648 43.4037 49.9428 41.9557 49.8471 40.4112C49.6537 37.2919 49.1652 33.9254 47.8871 31.4515C47.7606 31.2067 47.6588 31.0801 47.5892 31.0153C47.5323 30.9622 47.4932 30.946 47.4495 30.9366C46.7209 30.7808 45.9119 30.8884 45.2534 31.3551C45.2534 31.3551 45.1654 31.4284 44.9818 31.6459C44.8134 31.8453 44.5995 32.1241 44.3496 32.4852C43.8506 33.2065 43.2249 34.2286 42.5403 35.5424C41.1717 38.1689 39.5808 41.9394 38.3043 46.7672C36.5928 53.2409 35.9247 58.9715 37.0167 65.502C37.6419 69.241 38.1493 72.0876 38.5022 74.0038C38.6786 74.9619 38.8165 75.6877 38.9109 76.1754C38.9582 76.4192 38.9948 76.6029 39.0195 76.7263C39.0319 76.7879 39.0408 76.8333 39.047 76.8629C39.0501 76.8777 39.052 76.8869 39.0528 76.8908L39.0546 76.8982C39.1685 77.3921 38.8923 77.9015 38.4022 78.0682C37.8793 78.246 37.3114 77.9664 37.1336 77.4435C37.1208 77.4058 37.1122 77.3748 37.1114 77.3715C37.1087 77.3612 37.1071 77.3521 37.106 77.3471C37.1036 77.337 37.1007 77.3276 37.0993 77.321C37.0961 77.3067 37.0935 77.2896 37.0898 77.2717C37.0822 77.2351 37.0716 77.1844 37.0588 77.1203C37.0328 76.9912 36.9953 76.802 36.9475 76.555C36.8518 76.0607 36.7125 75.3295 36.5351 74.3663C36.1802 72.4393 35.6708 69.5821 35.0437 65.8322C33.891 58.9388 34.6113 52.909 36.3704 46.2557C37.6856 41.2815 39.3308 37.3726 40.7664 34.6176C41.4838 33.2408 42.1529 32.1462 42.7059 31.3469C42.9818 30.9481 43.2336 30.6156 43.4533 30.3554C43.6577 30.1133 43.8805 29.8779 44.0971 29.7243C45.2808 28.8853 46.68 28.7266 47.8674 28.9806C48.7474 29.1688 49.2849 29.8001 49.6639 30.5337C51.145 33.4006 51.647 37.1252 51.8431 40.2882C51.942 41.8847 51.965 43.3763 51.9852 44.5818C51.9971 45.2976 52.0097 45.882 52.0311 46.332C54.8411 43.7432 60.181 37.5413 67.4578 32.7503C69.2873 31.5458 70.5844 31.3988 71.9055 31.2831Z" fill="#FFB5E3"/>
<path d="M354.697 75.5185C356.014 75.9823 356.906 77.135 357.351 78.0186C357.597 78.5061 357.451 78.9728 357.322 79.2335C357.19 79.5006 356.989 79.7442 356.784 79.9569C356.365 80.3913 355.722 80.911 354.879 81.5232C353.18 82.7582 350.484 84.5002 346.66 86.887C341.278 90.2452 332.315 94.3563 327.729 96.6065L327.72 96.6112C325.243 97.7964 323.625 98.444 322.386 98.7955C321.112 99.1566 320.259 99.1983 319.357 99.2151L319.345 99.216L319.333 99.2156C318.508 99.211 318.029 99.1448 316.928 98.7793C316.404 98.6053 316.12 98.0397 316.294 97.5157C316.468 96.9915 317.034 96.7072 317.558 96.8812C318.48 97.1872 318.751 97.2113 319.336 97.2147C320.146 97.1993 320.805 97.1647 321.839 96.8716C322.914 96.5669 324.411 95.9775 326.857 94.8073C331.547 92.506 340.337 88.4748 345.601 85.1902C349.43 82.8005 352.069 81.0937 353.704 79.9058C354.528 79.3066 355.053 78.8709 355.343 78.5693C355.347 78.5655 355.35 78.5609 355.354 78.5572C355.021 78.0477 354.55 77.5872 354.033 77.4049C353.269 77.1357 352.707 76.9516 351.589 77.1278C345.538 78.0808 340.628 80.4631 337.825 81.3456C337.502 81.4474 337.027 81.5243 336.579 81.392C336.338 81.3209 336.012 81.1582 335.799 80.8065C335.577 80.4411 335.585 80.0502 335.665 79.7469C335.785 79.2905 336.091 78.5877 336.413 77.8472C336.752 77.0644 337.156 76.137 337.541 75.1274C338.322 73.0797 338.967 70.831 338.871 68.9407C338.863 68.7952 338.844 68.7201 338.834 68.688C338.475 68.4325 338.024 68.3047 337.575 68.3883C337.591 68.3854 337.534 68.3988 337.378 68.473C337.223 68.5466 337.013 68.6588 336.754 68.814C336.237 69.1236 335.55 69.589 334.738 70.2249C333.114 71.496 331.015 73.4323 328.808 76.1358C325.848 79.763 323.78 83.2024 322.595 87.6496C321.91 90.2245 321.408 92.1933 321.077 93.5214C320.912 94.1855 320.789 94.6894 320.708 95.0282C320.667 95.1975 320.637 95.3253 320.617 95.4106C320.608 95.4531 320.601 95.484 320.596 95.5036C320.594 95.5138 320.593 95.5206 320.593 95.5206L320.592 95.5234C320.492 96.0199 320.029 96.3692 319.514 96.3184C318.965 96.2641 318.563 95.7748 318.617 95.2252C318.621 95.186 318.627 95.1547 318.627 95.1513C318.629 95.141 318.631 95.132 318.632 95.1274C318.634 95.1181 318.636 95.1097 318.637 95.1043C318.639 95.0928 318.642 95.0792 318.645 95.0663C318.651 95.0396 318.659 95.0034 318.67 94.9584C318.691 94.8674 318.722 94.7349 318.763 94.5624C318.846 94.2171 318.969 93.7077 319.136 93.0386C319.469 91.6997 319.974 89.7198 320.663 87.1344C321.943 82.3319 324.182 78.6426 327.259 74.8715C329.561 72.051 331.767 70.0107 333.504 68.6503C334.371 67.9707 335.128 67.4563 335.726 67.098C336.025 66.9191 336.293 66.7748 336.52 66.6669C336.725 66.5692 336.964 66.4687 337.186 66.4259L337.391 66.3933C338.409 66.2578 339.354 66.5839 340.05 67.0989L340.159 67.186C340.682 67.634 340.838 68.2567 340.868 68.8393C340.986 71.1713 340.206 73.7517 339.41 75.8404C339.006 76.8988 338.584 77.8665 338.247 78.6436C338.166 78.8312 338.094 79.0046 338.027 79.1617C340.722 78.1869 345.665 76.0361 351.278 75.1522C352.869 74.9015 353.797 75.2014 354.697 75.5185Z" fill="#FFB5E3"/>
<path d="M389.846 96.1422C390.921 97.0329 391.36 98.423 391.472 99.406C391.533 99.9485 391.235 100.336 391.024 100.536C390.808 100.741 390.535 100.9 390.269 101.028C389.726 101.291 388.943 101.556 387.94 101.839C385.918 102.41 382.787 103.112 378.372 104.029C372.162 105.318 362.329 106.074 357.249 106.599L357.239 106.601C354.504 106.856 352.762 106.904 351.478 106.805C350.158 106.703 349.343 106.447 348.491 106.151L348.479 106.147L348.469 106.143C347.695 105.853 347.269 105.625 346.362 104.901C345.931 104.557 345.86 103.928 346.205 103.497C346.549 103.065 347.179 102.994 347.611 103.339C348.37 103.945 348.616 104.061 349.164 104.267C349.929 104.532 350.559 104.728 351.63 104.811C352.744 104.896 354.353 104.861 357.052 104.609C362.249 104.073 371.891 103.331 377.966 102.07C382.386 101.153 385.452 100.464 387.397 99.9151C388.378 99.6382 389.021 99.4108 389.397 99.2283C389.402 99.226 389.407 99.2227 389.411 99.2204C389.275 98.6273 388.993 98.0324 388.571 97.6824C387.947 97.1657 387.484 96.7987 386.373 96.5769C380.366 95.3778 374.936 95.9148 372.001 95.7732C371.662 95.7567 371.19 95.6646 370.815 95.3854C370.614 95.2355 370.364 94.9702 370.286 94.5664C370.204 94.1469 370.346 93.7826 370.526 93.5257C370.798 93.1393 371.328 92.5857 371.885 92.0021C372.475 91.3851 373.175 90.6547 373.885 89.8406C375.326 88.1893 376.709 86.3026 377.273 84.4958C377.316 84.3567 377.324 84.2797 377.325 84.2459C377.077 83.8821 376.698 83.6062 376.248 83.5292C376.264 83.5319 376.206 83.5249 376.034 83.5405C375.863 83.5559 375.628 83.5888 375.331 83.6447C374.738 83.7564 373.932 83.9552 372.95 84.2709C370.988 84.9021 368.348 85.9925 365.343 87.7659C361.31 90.145 358.18 92.6568 355.53 96.4195C353.996 98.5981 352.844 100.272 352.074 101.404C351.69 101.969 351.4 102.4 351.207 102.69C351.11 102.834 351.038 102.944 350.99 103.017C350.966 103.054 350.949 103.08 350.938 103.097C350.932 103.106 350.928 103.112 350.928 103.112L350.927 103.114C350.661 103.545 350.106 103.713 349.64 103.487C349.144 103.246 348.936 102.648 349.177 102.151C349.194 102.116 349.21 102.088 349.212 102.085C349.217 102.076 349.222 102.068 349.224 102.065C349.229 102.056 349.234 102.049 349.237 102.045C349.244 102.035 349.251 102.023 349.258 102.012C349.273 101.989 349.293 101.958 349.319 101.919C349.37 101.841 349.445 101.727 349.543 101.58C349.74 101.284 350.033 100.849 350.42 100.279C351.196 99.1381 352.355 97.4552 353.896 95.2677C356.757 91.2043 360.134 88.5173 364.327 86.0438C367.462 84.1937 370.237 83.0422 372.337 82.3667C373.387 82.0292 374.275 81.8084 374.96 81.6792C375.302 81.6147 375.603 81.5718 375.853 81.5491C376.08 81.5286 376.339 81.5168 376.562 81.5535L376.765 81.5936C377.767 81.8188 378.541 82.4516 379.016 83.1756L379.089 83.2952C379.425 83.8965 379.355 84.5347 379.182 85.0915C378.486 87.3206 376.861 89.4715 375.391 91.1559C374.647 92.0094 373.916 92.7714 373.331 93.3839C373.19 93.5318 373.062 93.6696 372.945 93.7938C375.811 93.8115 381.193 93.5034 386.765 94.6157C388.345 94.9311 389.112 95.5335 389.846 96.1422Z" fill="#FFB5E3"/>
<path d="M405.711 40.9474C407.462 42.149 408.935 44.1997 409.788 45.753C410.01 46.1571 410.052 46.6059 409.929 47.0389C409.817 47.436 409.58 47.7764 409.32 48.0618C408.805 48.6277 407.979 49.2105 406.916 49.8339C404.766 51.0955 401.298 52.7176 396.374 54.8646C389.417 57.8981 377.359 60.417 371.278 61.9459L371.27 61.9482L371.262 61.9498C367.945 62.7298 365.733 63.0235 363.997 63.0015C362.232 62.9789 361.005 62.6292 359.7 62.2168L359.688 62.2129L359.678 62.2099C358.519 61.814 357.87 61.5048 356.2 60.3909C355.741 60.0844 355.616 59.4635 355.922 59.0041C356.229 58.5446 356.85 58.4206 357.31 58.7271C358.868 59.7665 359.365 59.9874 360.309 60.3106C361.552 60.7032 362.555 60.9825 364.022 61.0012C365.521 61.0203 367.55 60.7677 370.805 60.0027C377.071 58.428 388.825 55.975 395.575 53.0316C400.509 50.8804 403.871 49.3011 405.904 48.1083C406.933 47.5048 407.539 47.0471 407.841 46.7153C407.894 46.6577 407.93 46.6108 407.954 46.5757C407.164 45.1755 405.917 43.5141 404.58 42.5966C403.263 41.6938 402.231 41.0225 400.515 40.7452C391.79 39.336 385.246 40.934 381.357 41.033C380.87 41.0454 380.298 40.9177 379.821 40.6162C379.321 40.2998 378.837 39.7173 378.875 38.8778C378.906 38.2003 379.127 37.1861 379.37 36.0713C379.623 34.9102 379.925 33.5294 380.173 31.9975C380.67 28.9262 380.932 25.3232 380.132 21.8604C379.967 21.1448 379.749 20.7464 379.457 20.449C378.572 19.5487 377.588 18.9585 376.803 18.8596C376.794 18.8608 376.717 18.8633 376.553 18.9012C376.358 18.946 376.095 19.0279 375.77 19.158C375.121 19.4178 374.265 19.8547 373.278 20.5194C371.306 21.8467 368.832 24.0643 366.436 27.5351C363.23 32.1805 361.245 36.9897 360.913 44.0383C360.724 48.079 360.613 51.1809 360.549 53.2783C360.518 54.3271 360.499 55.125 360.487 55.6627C360.482 55.9317 360.478 56.1354 360.476 56.2724C360.475 56.341 360.474 56.3918 360.474 56.4251C360.474 56.4415 360.474 56.4516 360.474 56.4566L360.469 56.3733C360.527 56.9222 360.13 57.4145 359.581 57.4732C359.032 57.5318 358.538 57.1341 358.479 56.5849C358.476 56.5499 358.475 56.5216 358.475 56.5171C358.474 56.507 358.474 56.4984 358.474 56.4933C358.474 56.4828 358.474 56.4727 358.474 56.4653C358.474 56.4501 358.474 56.4319 358.474 56.4122C358.474 56.3718 358.475 56.3151 358.476 56.2441C358.478 56.1013 358.481 55.8931 358.487 55.6211C358.498 55.0766 358.519 54.273 358.55 53.2188C358.614 51.1101 358.726 47.9969 358.916 43.9447C359.266 36.4868 361.393 31.3212 364.791 26.3989C367.326 22.7257 369.978 20.33 372.161 18.8608C373.251 18.1272 374.231 17.6195 375.027 17.3008C375.425 17.1418 375.787 17.0255 376.104 16.9526C376.397 16.8849 376.728 16.8363 377.031 16.8728L377.301 16.9138C378.643 17.1657 379.92 18.0678 380.882 19.0466C381.511 19.6862 381.861 20.461 382.08 21.4104C382.965 25.2398 382.662 29.1388 382.147 32.3174C381.889 33.9102 381.575 35.3416 381.324 36.4964C381.073 37.6531 380.907 38.4439 380.876 38.9153C380.88 38.9184 380.885 38.9224 380.891 38.926C380.936 38.9544 381.003 38.985 381.087 39.0067C381.17 39.0283 381.249 39.0351 381.306 39.0337C384.67 38.9479 391.894 37.3265 400.834 38.7704C403.017 39.123 404.359 40.0203 405.711 40.9474Z" fill="#FFB5E3"/>
<path d="M344.217 19.6459C346.043 19.486 347.77 20.3852 348.821 21.2319C349.277 21.599 349.352 22.1259 349.34 22.4782C349.329 22.8379 349.227 23.2248 349.093 23.6048C348.819 24.3763 348.307 25.4006 347.578 26.6842C346.112 29.2672 343.654 33.0946 340.103 38.4335C335.125 45.92 325.96 56.481 321.329 62.1079L321.323 62.1158C318.817 65.1007 317.12 66.869 315.749 68.0292C314.352 69.2119 313.309 69.7484 312.167 70.2926L312.156 70.2979L312.145 70.3023C311.118 70.7614 310.504 70.948 308.902 71.1176C308.353 71.1758 307.86 70.7768 307.802 70.2276C307.744 69.6787 308.142 69.1866 308.691 69.1282C310.109 68.978 310.516 68.8396 311.328 68.4764C312.384 67.9729 313.252 67.5218 314.457 66.5023C315.697 65.4529 317.307 63.7883 319.791 60.8301C324.496 55.1133 333.536 44.6974 338.438 37.3267C341.991 31.9832 344.411 28.2103 345.838 25.6967C346.556 24.4323 346.996 23.5343 347.207 22.9366C347.259 22.7918 347.29 22.6793 347.31 22.5953C346.488 22.0073 345.393 21.55 344.391 21.6377C343.214 21.7407 342.298 21.8424 340.869 22.7835C333.563 27.5937 328.526 33.6362 325.478 36.3698C325.152 36.6626 324.657 36.9826 324.114 37.0585C323.825 37.0988 323.425 37.0803 323.057 36.8286C322.675 36.5677 322.499 36.1746 322.438 35.8129C322.333 35.191 322.316 34.1441 322.297 32.9785C322.276 31.7665 322.254 30.3185 322.159 28.7739C321.965 25.6547 321.477 22.2881 320.199 19.8143C320.072 19.5694 319.97 19.4429 319.901 19.378C319.844 19.325 319.805 19.3087 319.761 19.2994C319.032 19.1435 318.223 19.2511 317.565 19.7179C317.565 19.7179 317.477 19.7911 317.293 20.0086C317.125 20.208 316.911 20.4868 316.661 20.8479C316.162 21.5693 315.536 22.5914 314.852 23.9051C313.483 26.5317 311.892 30.3021 310.616 35.13C308.904 41.6036 308.236 47.3342 309.328 53.8647C309.953 57.6038 310.461 60.4504 310.814 62.3665C310.99 63.3246 311.128 64.0505 311.222 64.5381C311.27 64.782 311.306 64.9657 311.331 65.0891C311.343 65.1507 311.352 65.196 311.358 65.2256C311.362 65.2404 311.363 65.2496 311.364 65.2535L311.366 65.2609C311.48 65.7548 311.204 66.2642 310.714 66.431C310.191 66.6088 309.623 66.3291 309.445 65.8062C309.432 65.7685 309.424 65.7376 309.423 65.7343C309.42 65.7239 309.419 65.7148 309.417 65.7099C309.415 65.6997 309.412 65.6904 309.411 65.6837C309.408 65.6695 309.405 65.6523 309.401 65.6344C309.394 65.5979 309.383 65.5471 309.37 65.483C309.344 65.354 309.307 65.1647 309.259 64.9177C309.163 64.4235 309.024 63.6922 308.847 62.7291C308.492 60.8021 307.982 57.9449 307.355 54.195C306.202 47.3015 306.923 41.2718 308.682 34.6184C309.997 29.6442 311.642 25.7354 313.078 22.9803C313.795 21.6035 314.464 20.5089 315.017 19.7097C315.293 19.3108 315.545 18.9783 315.765 18.7181C315.969 18.4761 316.192 18.2407 316.409 18.0871C317.592 17.248 318.991 17.0894 320.179 17.3433C321.059 17.5315 321.596 18.1628 321.975 18.8964C323.456 21.7633 323.958 25.488 324.155 28.651C324.253 30.2474 324.276 31.739 324.297 32.9446C324.309 33.6604 324.321 34.2447 324.343 34.6948C327.153 32.106 332.492 25.9041 339.769 21.113C341.599 19.9086 342.896 19.7615 344.217 19.6459Z" fill="#FFB5E3"/>
<path d="M170.829 203.528C172.145 203.992 173.037 205.145 173.483 206.028C173.728 206.516 173.582 206.983 173.454 207.243C173.322 207.51 173.12 207.754 172.915 207.967C172.497 208.401 171.854 208.921 171.011 209.533C169.311 210.768 166.616 212.51 162.791 214.897C157.41 218.255 148.446 222.366 143.861 224.616L143.852 224.621C141.375 225.806 139.757 226.454 138.517 226.805C137.244 227.166 136.391 227.208 135.489 227.225L135.477 227.226L135.465 227.225C134.639 227.221 134.16 227.155 133.059 226.789C132.535 226.615 132.252 226.049 132.426 225.525C132.6 225.001 133.166 224.717 133.69 224.891C134.612 225.197 134.883 225.221 135.468 225.224C136.278 225.209 136.937 225.174 137.971 224.881C139.045 224.577 140.543 223.987 142.988 222.817C147.679 220.516 156.469 216.485 161.732 213.2C165.562 210.81 168.2 209.104 169.835 207.916C170.66 207.316 171.185 206.881 171.475 206.579C171.479 206.575 171.482 206.571 171.485 206.567C171.152 206.058 170.682 205.597 170.165 205.415C169.401 205.146 168.839 204.961 167.72 205.138C161.669 206.091 156.76 208.473 153.957 209.355C153.633 209.457 153.159 209.534 152.71 209.402C152.47 209.331 152.144 209.168 151.931 208.816C151.709 208.451 151.716 208.06 151.796 207.757C151.917 207.3 152.223 206.597 152.544 205.857C152.884 205.074 153.288 204.147 153.673 203.137C154.453 201.089 155.098 198.841 155.002 196.951C154.995 196.805 154.976 196.73 154.965 196.698C154.607 196.442 154.156 196.315 153.706 196.398C153.722 196.395 153.665 196.409 153.509 196.483C153.354 196.556 153.145 196.669 152.886 196.824C152.369 197.133 151.681 197.599 150.869 198.235C149.246 199.506 147.147 201.442 144.94 204.146C141.98 207.773 139.912 211.212 138.727 215.659C138.041 218.234 137.539 220.203 137.209 221.531C137.044 222.195 136.921 222.699 136.84 223.038C136.799 223.207 136.769 223.335 136.749 223.42C136.739 223.463 136.733 223.494 136.728 223.513C136.726 223.524 136.724 223.53 136.724 223.53L136.724 223.533C136.624 224.03 136.161 224.379 135.646 224.328C135.096 224.274 134.695 223.785 134.749 223.235C134.753 223.196 134.758 223.165 134.759 223.161C134.761 223.151 134.763 223.142 134.763 223.137C134.765 223.128 134.767 223.119 134.768 223.114C134.771 223.103 134.773 223.089 134.776 223.076C134.782 223.049 134.791 223.013 134.802 222.968C134.823 222.877 134.853 222.745 134.895 222.572C134.977 222.227 135.101 221.718 135.268 221.048C135.601 219.71 136.106 217.73 136.795 215.144C138.074 210.342 140.313 206.652 143.391 202.881C145.693 200.061 147.898 198.02 149.635 196.66C150.503 195.98 151.26 195.466 151.858 195.108C152.157 194.929 152.424 194.785 152.651 194.677C152.857 194.579 153.096 194.478 153.318 194.436L153.522 194.403C154.541 194.268 155.485 194.594 156.182 195.109L156.291 195.196C156.814 195.644 156.97 196.267 157 196.849C157.118 199.181 156.337 201.761 155.541 203.85C155.138 204.909 154.716 205.876 154.379 206.653C154.297 206.841 154.226 207.014 154.158 207.171C156.853 206.197 161.796 204.046 167.409 203.162C169.001 202.911 169.929 203.211 170.829 203.528Z" fill="#FFB5E3"/>
<path d="M205.978 224.152C207.053 225.043 207.491 226.433 207.603 227.416C207.665 227.958 207.367 228.346 207.156 228.546C206.94 228.751 206.666 228.91 206.401 229.038C205.858 229.301 205.074 229.566 204.072 229.849C202.05 230.42 198.919 231.122 194.504 232.038C188.293 233.328 178.461 234.084 173.38 234.609L173.37 234.61C170.636 234.866 168.894 234.913 167.609 234.814C166.29 234.713 165.475 234.457 164.623 234.161L164.611 234.157L164.6 234.153C163.827 233.863 163.401 233.635 162.494 232.911C162.063 232.567 161.992 231.938 162.336 231.506C162.681 231.075 163.311 231.004 163.742 231.348C164.501 231.954 164.747 232.071 165.295 232.276C166.06 232.542 166.691 232.738 167.762 232.82C168.876 232.906 170.484 232.871 173.184 232.619C178.381 232.083 188.023 231.341 194.098 230.08C198.517 229.162 201.583 228.474 203.528 227.925C204.509 227.648 205.152 227.421 205.529 227.238C205.534 227.236 205.538 227.233 205.543 227.23C205.407 226.637 205.124 226.042 204.702 225.692C204.079 225.175 203.616 224.808 202.505 224.587C196.498 223.388 191.067 223.925 188.132 223.783C187.793 223.767 187.321 223.674 186.947 223.395C186.745 223.245 186.496 222.98 186.417 222.576C186.336 222.157 186.478 221.792 186.658 221.536C186.929 221.149 187.459 220.596 188.017 220.012C188.606 219.395 189.306 218.664 190.017 217.85C191.457 216.199 192.841 214.312 193.404 212.506C193.448 212.366 193.456 212.289 193.457 212.256C193.209 211.892 192.83 211.616 192.379 211.539C192.395 211.542 192.337 211.535 192.165 211.55C191.994 211.566 191.759 211.599 191.462 211.655C190.87 211.766 190.064 211.965 189.082 212.281C187.12 212.912 184.48 214.002 181.474 215.776C177.442 218.155 174.312 220.667 171.662 224.429C170.128 226.608 168.976 228.282 168.206 229.413C167.821 229.979 167.532 230.41 167.338 230.699C167.242 230.844 167.169 230.954 167.121 231.027C167.097 231.063 167.08 231.09 167.069 231.107C167.064 231.116 167.06 231.122 167.06 231.122L167.059 231.124C166.793 231.555 166.238 231.723 165.772 231.497C165.275 231.256 165.068 230.658 165.309 230.161C165.326 230.126 165.342 230.098 165.344 230.095C165.349 230.086 165.354 230.078 165.356 230.074C165.361 230.066 165.366 230.059 165.369 230.054C165.375 230.044 165.382 230.033 165.389 230.021C165.404 229.998 165.425 229.968 165.45 229.929C165.502 229.851 165.576 229.737 165.675 229.59C165.872 229.294 166.164 228.859 166.552 228.289C167.328 227.148 168.487 225.465 170.027 223.277C172.889 219.214 176.266 216.527 180.458 214.054C183.594 212.204 186.369 211.052 188.469 210.376C189.518 210.039 190.406 209.818 191.092 209.689C191.434 209.624 191.735 209.582 191.985 209.559C192.212 209.538 192.471 209.527 192.694 209.563L192.897 209.603C193.899 209.829 194.673 210.461 195.148 211.185L195.22 211.305C195.556 211.906 195.487 212.544 195.313 213.101C194.618 215.33 192.993 217.481 191.523 219.166C190.778 220.019 190.048 220.781 189.463 221.394C189.321 221.542 189.194 221.679 189.077 221.804C191.943 221.821 197.324 221.513 202.896 222.625C204.477 222.941 205.243 223.543 205.978 224.152Z" fill="#FFB5E3"/>
<path d="M221.842 168.957C223.594 170.159 225.066 172.209 225.92 173.763C226.142 174.167 226.184 174.616 226.061 175.049C225.949 175.446 225.712 175.786 225.452 176.072C224.936 176.638 224.111 177.22 223.048 177.844C220.897 179.105 217.43 180.727 212.506 182.874C205.549 185.908 193.491 188.427 187.409 189.956L187.401 189.958L187.394 189.96C184.076 190.74 181.865 191.033 180.129 191.011C178.363 190.989 177.137 190.639 175.831 190.227L175.82 190.223L175.809 190.22C174.651 189.824 174.002 189.515 172.332 188.401C171.872 188.094 171.748 187.473 172.054 187.014C172.36 186.554 172.982 186.43 173.441 186.737C174.999 187.776 175.497 187.997 176.44 188.32C177.684 188.713 178.686 188.992 180.154 189.011C181.653 189.03 183.682 188.778 186.936 188.012C193.203 186.438 204.956 183.985 211.707 181.041C216.641 178.89 220.003 177.311 222.036 176.118C223.065 175.515 223.671 175.057 223.973 174.725C224.025 174.668 224.061 174.621 224.086 174.585C223.295 173.185 222.049 171.524 220.711 170.606C219.395 169.704 218.363 169.032 216.646 168.755C207.921 167.346 201.378 168.944 197.489 169.043C197.002 169.055 196.43 168.927 195.953 168.626C195.453 168.31 194.969 167.727 195.007 166.888C195.037 166.21 195.259 165.196 195.502 164.081C195.754 162.92 196.057 161.539 196.305 160.007C196.802 156.936 197.064 153.333 196.264 149.87C196.099 149.155 195.881 148.756 195.588 148.459C194.703 147.558 193.719 146.968 192.935 146.869C192.925 146.871 192.849 146.873 192.684 146.911C192.49 146.956 192.227 147.038 191.902 147.168C191.252 147.428 190.397 147.865 189.409 148.529C187.437 149.856 184.963 152.074 182.568 155.545C179.362 160.19 177.376 164.999 177.045 172.048C176.855 176.089 176.744 179.191 176.681 181.288C176.649 182.337 176.63 183.135 176.619 183.673C176.613 183.941 176.61 184.145 176.608 184.282C176.607 184.351 176.606 184.402 176.606 184.435C176.606 184.451 176.606 184.461 176.606 184.466L176.6 184.383C176.659 184.932 176.261 185.424 175.712 185.483C175.163 185.542 174.67 185.144 174.611 184.595C174.607 184.56 174.606 184.531 174.606 184.527C174.606 184.517 174.606 184.508 174.606 184.503C174.606 184.493 174.606 184.482 174.606 184.475C174.606 184.46 174.606 184.442 174.606 184.422C174.606 184.382 174.606 184.325 174.607 184.254C174.609 184.111 174.613 183.903 174.619 183.631C174.63 183.086 174.65 182.283 174.682 181.229C174.746 179.12 174.857 176.007 175.048 171.954C175.398 164.497 177.525 159.331 180.922 154.409C183.457 150.736 186.11 148.34 188.293 146.871C189.382 146.137 190.362 145.629 191.159 145.311C191.556 145.152 191.919 145.035 192.235 144.962C192.529 144.895 192.86 144.846 193.163 144.883L193.433 144.924C194.774 145.176 196.052 146.078 197.014 147.056C197.642 147.696 197.993 148.471 198.212 149.42C199.097 153.25 198.793 157.149 198.279 160.327C198.021 161.92 197.707 163.351 197.456 164.506C197.204 165.663 197.038 166.454 197.008 166.925C197.012 166.928 197.017 166.932 197.023 166.936C197.068 166.964 197.135 166.995 197.219 167.016C197.302 167.038 197.381 167.045 197.438 167.043C200.802 166.958 208.026 165.336 216.965 166.78C219.148 167.133 220.491 168.03 221.842 168.957Z" fill="#FFB5E3"/>
<path d="M160.349 147.656C162.175 147.496 163.901 148.395 164.953 149.242C165.408 149.609 165.483 150.136 165.472 150.488C165.46 150.848 165.359 151.235 165.224 151.615C164.951 152.386 164.439 153.41 163.71 154.694C162.243 157.277 159.785 161.104 156.235 166.443C151.257 173.93 142.091 184.491 137.461 190.118L137.455 190.126C134.948 193.111 133.252 194.879 131.881 196.039C130.484 197.222 129.441 197.758 128.299 198.302L128.287 198.308L128.276 198.312C127.25 198.771 126.635 198.958 125.034 199.127C124.484 199.186 123.992 198.787 123.934 198.237C123.876 197.688 124.274 197.196 124.822 197.138C126.241 196.988 126.648 196.849 127.46 196.486C128.516 195.983 129.384 195.532 130.589 194.512C131.829 193.463 133.439 191.798 135.923 188.84C140.628 183.123 149.668 172.707 154.569 165.337C158.123 159.993 160.543 156.22 161.97 153.707C162.688 152.442 163.127 151.544 163.339 150.946C163.39 150.802 163.422 150.689 163.442 150.605C162.62 150.017 161.524 149.56 160.523 149.647C159.345 149.751 158.43 149.852 157.001 150.793C149.695 155.603 144.658 161.646 141.61 164.38C141.283 164.672 140.788 164.992 140.245 165.068C139.957 165.109 139.557 165.09 139.188 164.838C138.807 164.578 138.631 164.184 138.569 163.823C138.464 163.201 138.448 162.154 138.428 160.988C138.408 159.776 138.386 158.328 138.29 156.784C138.097 153.664 137.608 150.298 136.33 147.824C136.204 147.579 136.102 147.453 136.032 147.388C135.975 147.335 135.936 147.319 135.893 147.309C135.164 147.153 134.355 147.261 133.697 147.728C133.697 147.728 133.609 147.801 133.425 148.018C133.257 148.218 133.043 148.497 132.793 148.858C132.294 149.579 131.668 150.601 130.983 151.915C129.615 154.541 128.024 158.312 126.748 163.14C125.036 169.613 124.368 175.344 125.46 181.874C126.085 185.614 126.592 188.46 126.945 190.376C127.122 191.334 127.26 192.06 127.354 192.548C127.401 192.792 127.438 192.975 127.463 193.099C127.475 193.16 127.484 193.206 127.49 193.235C127.493 193.25 127.495 193.259 127.496 193.263L127.498 193.271C127.612 193.765 127.335 194.274 126.845 194.441C126.322 194.619 125.755 194.339 125.577 193.816C125.564 193.778 125.555 193.747 125.555 193.744C125.552 193.734 125.55 193.725 125.549 193.72C125.547 193.71 125.544 193.7 125.542 193.693C125.539 193.679 125.537 193.662 125.533 193.644C125.525 193.608 125.515 193.557 125.502 193.493C125.476 193.364 125.438 193.175 125.391 192.927C125.295 192.433 125.156 191.702 124.978 190.739C124.623 188.812 124.114 185.955 123.487 182.205C122.334 175.311 123.054 169.282 124.814 162.628C126.129 157.654 127.774 153.745 129.21 150.99C129.927 149.613 130.596 148.519 131.149 147.719C131.425 147.321 131.677 146.988 131.896 146.728C132.101 146.486 132.324 146.25 132.54 146.097C133.724 145.258 135.123 145.099 136.311 145.353C137.191 145.541 137.728 146.173 138.107 146.906C139.588 149.773 140.09 153.498 140.286 156.661C140.385 158.257 140.408 159.749 140.428 160.954C140.44 161.67 140.453 162.255 140.474 162.705C143.284 160.116 148.624 153.914 155.901 149.123C157.73 147.918 159.028 147.771 160.349 147.656Z" fill="#FFB5E3"/>
<path d="M298.838 214.002C300.155 214.466 301.047 215.618 301.492 216.502C301.738 216.989 301.592 217.456 301.464 217.717C301.332 217.984 301.13 218.227 300.925 218.44C300.507 218.875 299.863 219.394 299.021 220.007C297.321 221.242 294.626 222.983 290.801 225.37C285.42 228.729 276.456 232.84 271.871 235.09L271.862 235.094C269.385 236.28 267.767 236.927 266.527 237.279C265.254 237.64 264.401 237.682 263.498 237.698L263.487 237.699H263.475C262.649 237.694 262.17 237.628 261.069 237.263C260.545 237.089 260.262 236.523 260.435 235.999C260.609 235.475 261.175 235.191 261.7 235.365C262.621 235.67 262.893 235.695 263.478 235.698C264.288 235.683 264.947 235.648 265.98 235.355C267.055 235.05 268.552 234.461 270.998 233.291C275.689 230.989 284.479 226.958 289.742 223.674C293.572 221.284 296.21 219.577 297.845 218.389C298.67 217.79 299.194 217.354 299.485 217.053C299.489 217.049 299.491 217.044 299.495 217.04C299.162 216.531 298.691 216.071 298.174 215.888C297.41 215.619 296.849 215.435 295.73 215.611C289.679 216.564 284.77 218.946 281.967 219.829C281.643 219.931 281.168 220.008 280.72 219.875C280.48 219.804 280.154 219.642 279.94 219.29C279.719 218.924 279.726 218.533 279.806 218.23C279.927 217.774 280.233 217.071 280.554 216.331C280.894 215.548 281.298 214.62 281.683 213.611C282.463 211.563 283.108 209.314 283.012 207.424C283.005 207.279 282.986 207.203 282.975 207.171C282.617 206.916 282.166 206.788 281.716 206.872C281.732 206.869 281.675 206.882 281.519 206.956C281.364 207.03 281.155 207.142 280.896 207.297C280.379 207.607 279.691 208.072 278.879 208.708C277.256 209.979 275.156 211.916 272.95 214.619C269.989 218.246 267.922 221.686 266.737 226.133C266.051 228.708 265.549 230.677 265.219 232.005C265.053 232.669 264.93 233.173 264.849 233.512C264.809 233.681 264.779 233.809 264.759 233.894C264.749 233.936 264.742 233.967 264.738 233.987C264.736 233.997 264.734 234.004 264.734 234.004V234.007C264.633 234.503 264.171 234.852 263.656 234.802C263.106 234.747 262.705 234.258 262.759 233.709C262.763 233.669 262.768 233.638 262.769 233.635C262.771 233.624 262.772 233.615 262.773 233.611C262.775 233.601 262.777 233.593 262.778 233.588C262.781 233.576 262.783 233.563 262.786 233.55C262.792 233.523 262.801 233.487 262.811 233.442C262.832 233.351 262.863 233.218 262.905 233.046C262.987 232.7 263.111 232.191 263.278 231.522C263.611 230.183 264.116 228.203 264.805 225.618C266.084 220.815 268.323 217.126 271.401 213.355C273.703 210.534 275.908 208.494 277.645 207.134C278.513 206.454 279.269 205.94 279.868 205.581C280.167 205.402 280.434 205.258 280.661 205.15C280.867 205.053 281.106 204.952 281.328 204.909L281.532 204.877C282.55 204.741 283.495 205.067 284.191 205.582L284.301 205.669C284.824 206.117 284.98 206.74 285.009 207.323C285.128 209.655 284.347 212.235 283.551 214.324C283.148 215.382 282.726 216.35 282.389 217.127C282.307 217.315 282.235 217.488 282.168 217.645C284.863 216.67 289.806 214.519 295.419 213.636C297.011 213.385 297.939 213.685 298.838 214.002Z" fill="#FFB5E3"/>
<path d="M333.988 234.626C335.063 235.516 335.501 236.906 335.613 237.889C335.675 238.432 335.377 238.819 335.166 239.019C334.95 239.224 334.676 239.383 334.41 239.512C333.868 239.775 333.084 240.04 332.082 240.323C330.06 240.893 326.928 241.595 322.514 242.512C316.303 243.801 306.471 244.558 301.39 245.083L301.38 245.084C298.646 245.339 296.904 245.387 295.619 245.288C294.299 245.186 293.485 244.93 292.632 244.634L292.621 244.631L292.61 244.626C291.837 244.336 291.411 244.109 290.504 243.385C290.072 243.04 290.002 242.411 290.346 241.98C290.691 241.548 291.32 241.477 291.752 241.822C292.511 242.428 292.757 242.544 293.305 242.75C294.07 243.016 294.701 243.211 295.772 243.294C296.885 243.38 298.494 243.345 301.194 243.093C306.391 242.556 316.033 241.815 322.108 240.553C326.527 239.636 329.593 238.947 331.538 238.398C332.519 238.122 333.162 237.894 333.539 237.712C333.544 237.709 333.548 237.706 333.553 237.704C333.417 237.111 333.134 236.516 332.712 236.166C332.089 235.649 331.625 235.282 330.515 235.06C324.508 233.861 319.077 234.398 316.142 234.256C315.803 234.24 315.331 234.148 314.956 233.869C314.755 233.719 314.506 233.453 314.427 233.05C314.346 232.63 314.488 232.266 314.668 232.009C314.939 231.623 315.469 231.069 316.027 230.485C316.616 229.868 317.316 229.138 318.026 228.324C319.467 226.673 320.85 224.786 321.414 222.979C321.457 222.84 321.466 222.763 321.467 222.729C321.219 222.365 320.84 222.09 320.389 222.013C320.405 222.015 320.347 222.008 320.175 222.024C320.004 222.039 319.769 222.072 319.472 222.128C318.88 222.24 318.074 222.438 317.092 222.754C315.129 223.385 312.49 224.476 309.484 226.249C305.452 228.628 302.322 231.14 299.672 234.903C298.137 237.081 296.985 238.755 296.216 239.887C295.831 240.453 295.541 240.883 295.348 241.173C295.252 241.318 295.179 241.427 295.131 241.5C295.107 241.537 295.09 241.564 295.079 241.58C295.074 241.589 295.07 241.595 295.07 241.595L295.069 241.598C294.802 242.029 294.248 242.196 293.782 241.971C293.285 241.73 293.078 241.131 293.319 240.635C293.336 240.599 293.352 240.572 293.354 240.569C293.359 240.56 293.364 240.552 293.366 240.548C293.371 240.54 293.376 240.533 293.379 240.528C293.385 240.518 293.392 240.506 293.399 240.495C293.414 240.472 293.435 240.441 293.46 240.402C293.512 240.324 293.586 240.211 293.685 240.063C293.882 239.768 294.174 239.333 294.562 238.762C295.337 237.621 296.496 235.939 298.037 233.751C300.899 229.688 304.276 227.001 308.468 224.527C311.604 222.677 314.378 221.526 316.479 220.85C317.528 220.513 318.416 220.292 319.102 220.162C319.444 220.098 319.745 220.055 319.995 220.032C320.222 220.012 320.48 220 320.703 220.037L320.907 220.077C321.909 220.302 322.683 220.935 323.158 221.659L323.23 221.778C323.566 222.38 323.497 223.018 323.323 223.575C322.628 225.804 321.002 227.955 319.533 229.639C318.788 230.493 318.058 231.255 317.473 231.867C317.331 232.015 317.204 232.153 317.087 232.277C319.952 232.295 325.334 231.987 330.906 233.099C332.487 233.414 333.253 234.017 333.988 234.626Z" fill="#FFB5E3"/>
<path d="M349.852 179.431C351.604 180.632 353.076 182.683 353.93 184.236C354.152 184.64 354.193 185.089 354.071 185.522C353.958 185.919 353.722 186.26 353.462 186.545C352.946 187.111 352.121 187.694 351.058 188.317C348.907 189.579 345.44 191.201 340.516 193.348C333.559 196.381 321.501 198.9 315.419 200.429L315.411 200.431L315.404 200.433C312.086 201.213 309.875 201.507 308.139 201.485C306.373 201.462 305.147 201.113 303.841 200.7L303.83 200.696L303.819 200.693C302.661 200.297 302.012 199.988 300.342 198.874C299.882 198.568 299.757 197.947 300.064 197.487C300.37 197.028 300.992 196.904 301.451 197.21C303.009 198.25 303.506 198.471 304.45 198.794C305.694 199.187 306.696 199.466 308.163 199.485C309.662 199.504 311.692 199.251 314.946 198.486C321.212 196.911 332.966 194.458 339.717 191.515C344.651 189.364 348.012 187.784 350.046 186.592C351.075 185.988 351.68 185.53 351.983 185.199C352.035 185.141 352.071 185.094 352.096 185.059C351.305 183.659 350.058 181.997 348.721 181.08C347.405 180.177 346.373 179.506 344.656 179.229C335.931 177.819 329.388 179.417 325.499 179.516C325.012 179.529 324.439 179.401 323.963 179.1C323.463 178.783 322.979 178.201 323.016 177.361C323.047 176.684 323.269 175.669 323.511 174.555C323.764 173.393 324.067 172.013 324.315 170.481C324.812 167.409 325.074 163.806 324.274 160.344C324.109 159.628 323.89 159.23 323.598 158.932C322.713 158.032 321.729 157.442 320.945 157.343C320.935 157.344 320.859 157.347 320.694 157.385C320.5 157.429 320.237 157.511 319.912 157.641C319.262 157.901 318.407 158.338 317.419 159.003C315.447 160.33 312.973 162.548 310.578 166.018C307.371 170.664 305.386 175.473 305.055 182.522C304.865 186.562 304.754 189.664 304.691 191.762C304.659 192.81 304.64 193.608 304.629 194.146C304.623 194.415 304.619 194.619 304.618 194.756C304.617 194.824 304.616 194.875 304.616 194.908C304.615 194.925 304.616 194.935 304.616 194.94L304.61 194.857C304.669 195.406 304.271 195.898 303.722 195.957C303.173 196.015 302.68 195.617 302.621 195.068C302.617 195.033 302.616 195.005 302.616 195C302.616 194.99 302.616 194.982 302.616 194.977C302.615 194.966 302.616 194.956 302.616 194.949C302.616 194.933 302.615 194.915 302.616 194.896C302.616 194.855 302.616 194.798 302.617 194.727C302.619 194.585 302.623 194.376 302.628 194.104C302.64 193.56 302.66 192.756 302.692 191.702C302.755 189.593 302.867 186.48 303.058 182.428C303.408 174.97 305.535 169.805 308.932 164.882C311.467 161.209 314.12 158.813 316.302 157.344C317.392 156.611 318.372 156.103 319.169 155.784C319.566 155.625 319.929 155.509 320.245 155.436C320.539 155.368 320.87 155.32 321.173 155.356L321.442 155.397C322.784 155.649 324.062 156.551 325.024 157.53C325.652 158.169 326.003 158.944 326.222 159.894C327.106 163.723 326.803 167.622 326.289 170.801C326.031 172.394 325.717 173.825 325.466 174.98C325.214 176.136 325.048 176.927 325.018 177.399C325.022 177.402 325.027 177.406 325.033 177.409C325.078 177.438 325.145 177.468 325.228 177.49C325.312 177.512 325.39 177.518 325.448 177.517C328.812 177.431 336.036 175.81 344.975 177.254C347.158 177.606 348.501 178.504 349.852 179.431Z" fill="#FFB5E3"/>
<path d="M288.358 158.129C290.185 157.969 291.911 158.868 292.962 159.715C293.418 160.082 293.493 160.609 293.482 160.962C293.47 161.321 293.369 161.708 293.234 162.088C292.961 162.86 292.448 163.884 291.72 165.168C290.253 167.751 287.795 171.578 284.245 176.917C279.267 184.403 270.101 194.964 265.471 200.591L265.465 200.599C262.958 203.584 261.262 205.352 259.891 206.513C258.493 207.695 257.45 208.232 256.308 208.776L256.297 208.781L256.286 208.786C255.26 209.245 254.645 209.431 253.043 209.601C252.494 209.659 252.002 209.26 251.944 208.711C251.886 208.162 252.283 207.67 252.832 207.612C254.251 207.461 254.658 207.323 255.47 206.96C256.526 206.456 257.394 206.005 258.598 204.986C259.838 203.936 261.449 202.272 263.933 199.313C268.638 193.597 277.678 183.181 282.579 175.81C286.132 170.466 288.553 166.694 289.98 164.18C290.698 162.916 291.137 162.018 291.349 161.42C291.4 161.275 291.432 161.163 291.452 161.079C290.629 160.491 289.534 160.033 288.532 160.121C287.355 160.224 286.44 160.326 285.011 161.267C277.705 166.077 272.668 172.12 269.62 174.853C269.293 175.146 268.798 175.466 268.255 175.542C267.967 175.582 267.566 175.564 267.198 175.312C266.817 175.051 266.64 174.658 266.579 174.296C266.474 173.674 266.458 172.627 266.438 171.462C266.418 170.25 266.396 168.802 266.3 167.257C266.107 164.138 265.618 160.771 264.34 158.298C264.214 158.053 264.112 157.926 264.042 157.861C263.985 157.808 263.946 157.792 263.902 157.783C263.174 157.627 262.365 157.734 261.706 158.201C261.706 158.201 261.618 158.274 261.435 158.492C261.266 158.691 261.052 158.97 260.803 159.331C260.304 160.053 259.678 161.075 258.993 162.388C257.625 165.015 256.034 168.785 254.757 173.613C253.046 180.087 252.378 185.818 253.47 192.348C254.095 196.087 254.602 198.934 254.955 200.85C255.132 201.808 255.269 202.534 255.364 203.021C255.411 203.265 255.448 203.449 255.472 203.572C255.485 203.634 255.494 203.679 255.5 203.709C255.503 203.724 255.505 203.733 255.506 203.737L255.508 203.744C255.621 204.238 255.345 204.748 254.855 204.914C254.332 205.092 253.764 204.812 253.587 204.29C253.574 204.252 253.565 204.221 253.564 204.218C253.562 204.207 253.56 204.198 253.559 204.193C253.557 204.183 253.554 204.174 253.552 204.167C253.549 204.153 253.546 204.136 253.543 204.118C253.535 204.081 253.525 204.03 253.512 203.966C253.486 203.837 253.448 203.648 253.4 203.401C253.305 202.907 253.165 202.176 252.988 201.212C252.633 199.285 252.124 196.428 251.497 192.678C250.344 185.785 251.064 179.755 252.823 173.102C254.139 168.128 255.784 164.219 257.219 161.464C257.937 160.087 258.606 158.992 259.159 158.193C259.435 157.794 259.687 157.462 259.906 157.201C260.111 156.959 260.333 156.724 260.55 156.57C261.734 155.731 263.133 155.573 264.32 155.827C265.2 156.015 265.738 156.646 266.117 157.38C267.598 160.247 268.1 163.971 268.296 167.134C268.395 168.731 268.418 170.222 268.438 171.428C268.45 172.144 268.463 172.728 268.484 173.178C271.294 170.589 276.634 164.387 283.911 159.596C285.74 158.392 287.037 158.245 288.358 158.129Z" fill="#FFB5E3"/>
<path d="M479.216 82.5008C480.532 82.9647 481.424 84.1174 481.869 85.0009C482.115 85.4885 481.969 85.9552 481.841 86.2158C481.709 86.483 481.507 86.7265 481.302 86.9392C480.884 87.3736 480.241 87.8934 479.398 88.5056C477.698 89.7406 475.003 91.4825 471.178 93.8694C465.797 97.2276 456.833 101.339 452.248 103.589L452.239 103.594C449.762 104.779 448.144 105.426 446.904 105.778C445.631 106.139 444.778 106.181 443.876 106.197L443.864 106.198H443.852C443.026 106.193 442.547 106.127 441.446 105.762C440.922 105.588 440.639 105.022 440.812 104.498C440.986 103.974 441.553 103.69 442.077 103.864C442.998 104.17 443.27 104.194 443.855 104.197C444.665 104.182 445.324 104.147 446.358 103.854C447.432 103.549 448.929 102.96 451.375 101.79C456.066 99.4883 464.856 95.4571 470.119 92.1725C473.949 89.7829 476.587 88.0761 478.222 86.8881C479.047 86.289 479.572 85.8532 479.862 85.5517C479.866 85.5478 479.869 85.5433 479.872 85.5395C479.539 85.0301 479.068 84.5696 478.551 84.3872C477.788 84.1181 477.226 83.934 476.107 84.1102C470.056 85.0631 465.147 87.4455 462.344 88.3279C462.02 88.4297 461.545 88.5066 461.097 88.3743C460.857 88.3033 460.531 88.1406 460.317 87.7888C460.096 87.4235 460.103 87.0325 460.183 86.7292C460.304 86.2728 460.61 85.5701 460.931 84.8296C461.271 84.0467 461.675 83.1193 462.06 82.1098C462.84 80.062 463.485 77.8134 463.389 75.9231C463.382 75.7776 463.363 75.7025 463.352 75.6703C462.994 75.4148 462.543 75.2871 462.093 75.3707C462.109 75.3677 462.052 75.3812 461.896 75.4553C461.741 75.529 461.532 75.6411 461.273 75.7963C460.756 76.106 460.068 76.5713 459.256 77.2073C457.633 78.4783 455.534 80.4146 453.327 83.1182C450.367 86.7454 448.299 90.1848 447.114 94.6319C446.428 97.2068 445.926 99.1757 445.596 100.504C445.43 101.168 445.307 101.672 445.226 102.011C445.186 102.18 445.156 102.308 445.136 102.393C445.126 102.435 445.119 102.466 445.115 102.486C445.113 102.496 445.111 102.503 445.111 102.503V102.506C445.01 103.002 444.548 103.352 444.033 103.301C443.483 103.246 443.082 102.757 443.136 102.208C443.14 102.168 443.145 102.137 443.146 102.134C443.148 102.123 443.149 102.114 443.15 102.11C443.152 102.1 443.154 102.092 443.155 102.087C443.158 102.075 443.16 102.062 443.163 102.049C443.169 102.022 443.178 101.986 443.188 101.941C443.21 101.85 443.24 101.717 443.282 101.545C443.364 101.199 443.488 100.69 443.655 100.021C443.988 98.6821 444.493 96.7022 445.182 94.1167C446.461 89.3142 448.7 85.6249 451.778 81.8539C454.08 79.0333 456.285 76.993 458.022 75.6327C458.89 74.953 459.647 74.4387 460.245 74.0803C460.544 73.9015 460.811 73.7571 461.038 73.6492C461.244 73.5516 461.483 73.451 461.705 73.4082L461.909 73.3756C462.927 73.2402 463.872 73.5663 464.569 74.0812L464.678 74.1683C465.201 74.6163 465.357 75.2391 465.386 75.8216C465.505 78.1537 464.724 80.734 463.928 82.8227C463.525 83.8811 463.103 84.8488 462.766 85.6259C462.684 85.8136 462.612 85.9869 462.545 86.144C465.24 85.1693 470.183 83.0185 475.796 82.1346C477.388 81.8839 478.316 82.1838 479.216 82.5008Z" fill="#FFB5E3"/>
<path d="M468.735 26.6282C470.562 26.4684 472.288 27.3675 473.34 28.2142C473.795 28.5814 473.87 29.1083 473.859 29.4606C473.847 29.8203 473.746 30.2071 473.611 30.5871C473.338 31.3587 472.826 32.3829 472.097 33.6665C470.63 36.2496 468.172 40.077 464.622 45.4158C459.644 52.9023 450.478 63.4634 445.848 69.0902L445.842 69.0981C443.335 72.0831 441.639 73.8514 440.268 75.0116C438.87 76.1942 437.828 76.7308 436.685 77.275L436.674 77.2803L436.663 77.2847C435.637 77.7437 435.022 77.9303 433.42 78.1C432.871 78.1582 432.379 77.7592 432.321 77.21C432.263 76.661 432.66 76.1689 433.209 76.1106C434.628 75.9604 435.035 75.8219 435.847 75.4588C436.903 74.9553 437.771 74.5041 438.976 73.4847C440.215 72.4353 441.826 70.7706 444.31 67.8124C449.015 62.0957 458.055 51.6798 462.956 44.3091C466.51 38.9655 468.93 35.1926 470.357 32.6791C471.075 31.4146 471.514 30.5166 471.726 29.9189C471.777 29.7741 471.809 29.6617 471.829 29.5777C471.006 28.9896 469.911 28.5323 468.91 28.62C467.732 28.7231 466.817 28.8248 465.388 29.7659C458.082 34.576 453.045 40.6186 449.997 43.3522C449.67 43.6449 449.175 43.965 448.632 44.0408C448.344 44.0811 447.943 44.0627 447.575 43.8109C447.194 43.5501 447.017 43.157 446.956 42.7953C446.851 42.1733 446.835 41.1265 446.815 39.9608C446.795 38.7488 446.773 37.3008 446.677 35.7563C446.484 32.637 445.995 29.2705 444.717 26.7966C444.591 26.5518 444.489 26.4252 444.419 26.3603C444.362 26.3073 444.323 26.2911 444.279 26.2817C443.551 26.1259 442.742 26.2335 442.083 26.7002C442.083 26.7002 441.995 26.7735 441.812 26.991C441.643 27.1904 441.429 27.4692 441.18 27.8303C440.681 28.5516 440.055 29.5737 439.37 30.8875C438.002 33.514 436.411 37.2845 435.134 42.1123C433.423 48.586 432.755 54.3166 433.847 60.8471C434.472 64.5861 434.979 67.4327 435.332 69.3489C435.509 70.307 435.647 71.0328 435.741 71.5205C435.788 71.7643 435.825 71.948 435.85 72.0714C435.862 72.133 435.871 72.1784 435.877 72.208C435.88 72.2228 435.882 72.232 435.883 72.2359L435.885 72.2433C435.999 72.7372 435.722 73.2466 435.232 73.4133C434.709 73.5911 434.141 73.3115 433.964 72.7886C433.951 72.7509 433.942 72.7199 433.941 72.7166C433.939 72.7063 433.937 72.6971 433.936 72.6922C433.934 72.6821 433.931 72.6727 433.929 72.6661C433.926 72.6518 433.924 72.6347 433.92 72.6168C433.912 72.5802 433.902 72.5295 433.889 72.4654C433.863 72.3363 433.825 72.1471 433.777 71.9001C433.682 71.4058 433.543 70.6746 433.365 69.7114C433.01 67.7844 432.501 64.9272 431.874 61.1773C430.721 54.2839 431.441 48.2541 433.2 41.6008C434.516 36.6266 436.161 32.7177 437.596 29.9627C438.314 28.5859 438.983 27.4913 439.536 26.692C439.812 26.2932 440.064 25.9607 440.283 25.7005C440.488 25.4584 440.711 25.223 440.927 25.0694C442.111 24.2304 443.51 24.0717 444.697 24.3256C445.577 24.5139 446.115 25.1452 446.494 25.8788C447.975 28.7457 448.477 32.4703 448.673 35.6333C448.772 37.2298 448.795 38.7214 448.815 39.9269C448.827 40.6427 448.84 41.2271 448.861 41.6771C451.671 39.0883 457.011 32.8864 464.288 28.0954C466.117 26.8909 467.414 26.7439 468.735 26.6282Z" fill="#FFB5E3"/>
</svg>
